<svg width="366" height="390" viewBox="0 0 366 390" fill="none" xmlns="http://www.w3.org/2000/svg">
<path d="M365.051 144.637C364.336 143.789 363.2 143.428 362.131 143.702L333.196 151.187C332.006 151.494 330.763 151.013 330.082 149.997L317.506 131.14C317.359 130.919 317.186 130.718 316.978 130.551L305.111 120.46C304.789 120.187 304.536 119.846 304.355 119.458L289.534 86.7277C289.467 86.5609 289.38 86.4078 289.273 86.2668L280.592 73.8645C280.571 73.831 280.552 73.8044 280.532 73.7777L268.53 55.1735C268.129 54.5451 267.975 53.7833 268.129 53.0483L268.483 51.2834C268.65 50.4417 269.185 49.7196 269.939 49.3128C270.702 48.9053 271.597 48.8588 272.392 49.1856L274.23 49.9473C275.259 50.3754 276.448 50.1614 277.27 49.3997C278.086 48.644 278.393 47.4816 278.059 46.419L275.994 39.9368C275.687 38.9618 274.885 38.226 273.883 38.0059L253.368 33.4416C252.934 33.3487 252.472 33.3548 252.045 33.4622L235.714 37.5443C235.232 37.6646 234.725 37.6578 234.243 37.5176L219.956 33.5216C219.428 33.3754 218.948 33.0814 218.587 32.6662L214.884 28.4966C214.369 27.9215 213.648 27.5741 212.88 27.5406L204.013 27.0935C202.542 27.0265 201.246 28.0753 201.032 29.5386L199.963 36.6759C199.843 37.4513 199.422 38.146 198.787 38.5939C198.145 39.0418 197.351 39.2155 196.589 39.0753L177.752 35.5135C176.722 35.3132 175.887 34.5842 175.56 33.5955L174.19 29.4853C173.81 28.3496 172.76 27.5673 171.564 27.5277L156.576 27.0127C155.7 26.9861 154.892 26.5588 154.371 25.8633L149.512 19.3811C149.024 18.7329 148.837 17.9041 148.991 17.1096C149.144 16.3075 149.633 15.619 150.327 15.1985L151.603 14.4299C152.913 13.6476 153.374 11.9772 152.672 10.6274L147.907 1.52716C147.338 0.457706 146.162 -0.144052 144.96 0.02962L89.0677 7.92255C88.8338 7.94921 88.606 8.01624 88.3859 8.10308L72.0608 14.7521C71.7667 14.8786 71.4521 14.9456 71.1315 14.9593L60.667 15.507C59.9654 15.5474 59.3111 15.8345 58.816 16.3228L39.3701 35.1738C38.9298 35.6019 38.635 36.1557 38.5352 36.7574L36.9981 45.959C36.8716 46.7679 36.3971 47.4763 35.7093 47.9173L18.4213 58.8632C18.013 59.1169 17.6725 59.478 17.4455 59.8984L1.73508 88.306C1.47457 88.7737 1.34812 89.2947 1.37402 89.8294L2.58973 115.904C2.59658 116.131 2.58287 116.352 2.5364 116.573L0.325134 128.193C0.164412 129.042 0.39826 129.924 0.952792 130.593L43.2449 180.737C43.9472 181.566 45.0563 181.927 46.1189 181.68L64.8496 177.129C65.1367 177.062 65.4308 177.036 65.7316 177.055L91.9599 178.887C92.321 178.92 92.6881 178.867 93.0423 178.76L112.548 172.445C113.477 172.145 114.492 172.338 115.248 172.952L127.069 182.629C127.643 183.09 128.385 183.324 129.127 183.264L140.053 182.349C140.855 182.288 141.644 182.555 142.231 183.103C142.827 183.644 143.167 184.406 143.167 185.215V195.807C143.167 195.953 143.153 196.094 143.134 196.235L141.45 207.441C141.336 208.229 141.549 209.044 142.058 209.666L154.173 224.661C154.428 224.981 154.614 225.356 154.721 225.75L164.485 263.6C164.625 264.127 164.605 264.683 164.438 265.197L155.531 293.122C155.317 293.791 155.357 294.519 155.637 295.161L170.853 329.235C170.967 329.488 171.047 329.756 171.08 330.043L174.08 353.485C174.147 354.026 174.381 354.534 174.722 354.956L189.356 372.51C189.784 373.032 190.017 373.672 190.017 374.348V387.138C190.017 387.96 190.372 388.748 191 389.296C191.615 389.845 192.443 390.085 193.265 389.978L219.146 386.61L240.877 383.589C241.559 383.489 242.188 383.155 242.642 382.627L275.633 344.758C275.953 344.384 276.181 343.923 276.275 343.435L277.799 335.851C277.946 335.109 278.387 334.448 279.021 334.026L282.489 331.722C283.265 331.193 283.745 330.331 283.765 329.396L284.334 305.954C284.354 305.293 284.601 304.652 285.036 304.15L292.045 296.064C292.406 295.65 292.867 295.356 293.395 295.196L307.628 290.972C308.852 290.612 309.687 289.496 309.687 288.218V259.698C309.687 259.457 309.66 259.223 309.6 258.996L302.663 231.825C302.329 230.515 302.951 229.152 304.16 228.544L306.512 227.368C306.941 227.154 307.301 226.847 307.568 226.466L328.23 197.297C328.524 196.877 328.931 196.549 329.392 196.335L346.052 188.871C346.687 188.584 347.201 188.069 347.488 187.435L365.464 147.667C365.92 146.656 365.766 145.48 365.051 144.637Z" fill="#008000" fill-opacity="0.3"/>
<path d="M357.897 271.357C357.449 270.508 356.614 269.934 355.665 269.833C354.716 269.727 353.773 270.101 353.159 270.836L339.246 287.315C338.965 287.655 338.611 287.923 338.203 288.097L330.405 291.512C329.356 291.966 328.688 293.002 328.688 294.145V310.269C328.688 310.51 328.654 310.743 328.594 310.971L326.348 319.959C326.221 320.48 326.242 321.022 326.402 321.536L331.581 337.587C331.821 338.329 332.343 338.93 333.037 339.278C333.726 339.619 334.535 339.672 335.257 339.418L345.64 335.802C346.523 335.494 347.198 334.787 347.465 333.898L359.707 291.631L362.547 281.975C362.754 281.267 362.681 280.498 362.34 279.836L357.897 271.357Z" fill="#008000" fill-opacity="0.3"/>
</svg>
