<svg width="81" height="80" viewBox="0 0 81 80" fill="none" xmlns="http://www.w3.org/2000/svg">
<path fill-rule="evenodd" clip-rule="evenodd" d="M12.1048 11.5648C27.6755 -3.98388 52.987 -3.81854 68.6526 11.8473C84.3253 27.5199 84.484 52.8464 68.9152 68.4152C53.346 83.984 28.0197 83.8253 12.3471 68.1526C3.05955 58.8653 -0.775736 46.1945 0.871157 34.1793C1.10193 32.4956 2.65384 31.318 4.33741 31.5488C6.02103 31.7796 7.19875 33.3313 6.96802 35.015C5.57323 45.1906 8.81926 55.9221 16.6986 63.8015C30.0093 77.1122 51.4391 77.1881 64.5636 64.0636C77.6881 50.9391 77.6118 29.5094 64.301 16.1987C50.9972 2.89481 29.5826 2.81186 16.4563 15.9162L19.5238 15.9316C21.2231 15.9402 22.5938 17.3246 22.5852 19.024C22.5767 20.7233 21.1922 22.0939 19.4929 22.0854L9.04958 22.0329C7.36232 22.0244 5.99666 20.6587 5.98816 18.9715L5.93569 8.52817C5.92712 6.82889 7.29778 5.44439 8.99711 5.43582C10.6964 5.42729 12.0809 6.79795 12.0895 8.49728L12.1048 11.5648Z" fill="#929292"/>
<path opacity="0.5" d="M40.5008 20.5127C42.2 20.5127 43.5777 21.8903 43.5777 23.5896V38.7252L52.9328 48.0807C54.1344 49.2824 54.1344 51.2303 52.9328 52.4319C51.7311 53.6335 49.7832 53.6335 48.5816 52.4319L38.6255 42.4762C37.8562 41.7066 37.4238 40.6633 37.4238 39.5749V23.5896C37.4238 21.8903 38.8015 20.5127 40.5008 20.5127Z" fill="#929292"/>
</svg>
