<svg width="40" height="40" viewBox="0 0 40 40" fill="none" xmlns="http://www.w3.org/2000/svg">
<path opacity="0.8" d="M39.3726 29.2992L33.339 15.1886C32.2402 12.6055 30.6017 11.1405 28.7318 11.0441C26.8813 10.9477 25.0885 12.2392 23.7199 14.7067L20.0573 21.2801C19.2863 22.668 18.1875 23.4969 16.9923 23.5933C15.7778 23.7089 14.5634 23.0728 13.5803 21.8198L13.1562 21.2801C11.7876 19.5645 10.0912 18.7356 8.3563 18.909C6.6214 19.0825 5.13709 20.2777 4.15398 22.2246L0.819111 28.8751C-0.376044 31.2847 -0.260384 34.0798 1.14682 36.3545C2.55401 38.6291 5.00216 39.9978 7.68162 39.9978H32.2787C34.8618 39.9978 37.2714 38.7062 38.6979 36.5472C40.1629 34.3882 40.3942 31.6702 39.3726 29.2992Z" fill="#494949"/>
<path opacity="0.4" d="M10.3515 13.0271C13.9499 13.0271 16.8669 10.1101 16.8669 6.51162C16.8669 2.9132 13.9499 -0.00390625 10.3515 -0.00390625C6.75304 -0.00390625 3.83594 2.9132 3.83594 6.51162C3.83594 10.1101 6.75304 13.0271 10.3515 13.0271Z" fill="#494949"/>
</svg>
