<svg width="64" height="64" viewBox="0 0 64 64" fill="none" xmlns="http://www.w3.org/2000/svg">
<g clip-path="url(#clip0_nigeria)">
<path d="M0.421 32C0.421 45.8 7.263 57.8 21.474 61.8V2.2C7.263 6.2 0.421 18.2 0.421 32Z" fill="#008751"/>
<path d="M63.579 32C63.579 18.2 54.842 6.2 42.526 2.2V61.8C54.842 57.8 63.579 45.8 63.579 32Z" fill="#008751"/>
<path d="M21.474 61.8C24.737 63.0 28.316 63.6 32 63.6C35.684 63.6 39.263 63.0 42.526 61.8V2.2C39.263 1.0 35.684 0.4 32 0.4C28.316 0.4 24.737 1.0 21.474 2.2V61.8Z" fill="white"/>
</g>
<defs>
<clipPath id="clip0_nigeria">
<rect width="64" height="64" fill="white"/>
</clipPath>
</defs>
</svg>
