<svg width="24" height="24" viewBox="0 0 24 24" fill="none" xmlns="http://www.w3.org/2000/svg">
<path d="M20.8412 21.7701L20.8411 21.7701C20.153 22.4583 19.2299 22.8409 17.7499 23.0399C16.2501 23.2415 14.2843 23.243 11.5711 23.243C8.85802 23.243 6.89216 23.2415 5.39239 23.0399C3.91236 22.8409 2.98933 22.4583 2.30114 21.7701L2.30112 21.7701C1.61293 21.0819 1.23038 20.1589 1.03139 18.6789C0.829749 17.1791 0.828292 15.2132 0.828292 12.5001C0.828292 9.78698 0.829749 7.82111 1.03139 6.32135C1.23037 4.84131 1.61293 3.91828 2.30113 3.23009L2.30113 3.23008C2.98933 2.54189 3.91235 2.15933 5.39239 1.96034C6.89216 1.7587 8.85802 1.75725 11.5711 1.75725C14.2843 1.75725 16.2501 1.7587 17.7499 1.96034C19.2299 2.15933 20.153 2.54189 20.8411 3.23007L20.8411 3.23009C21.5294 3.91829 21.9119 4.84131 22.1109 6.32135C22.3126 7.82112 22.314 9.78698 22.314 12.5001C22.314 15.2132 22.3126 17.1791 22.1109 18.6788C21.9119 20.1589 21.5294 21.0819 20.8412 21.7701Z" stroke="#494949" stroke-width="1.37143"/>
<path d="M5.85714 17.9287C5.38376 17.9287 5 18.3125 5 18.7859C5 19.2592 5.38376 19.643 5.85714 19.643H12.7143C13.1877 19.643 13.5714 19.2592 13.5714 18.7859C13.5714 18.3125 13.1877 17.9287 12.7143 17.9287H5.85714Z" fill="#494949"/>
<path d="M5.85714 13.9287C5.38376 13.9287 5 14.3125 5 14.7859C5 15.2592 5.38376 15.643 5.85714 15.643H16.1429C16.6162 15.643 17 15.2592 17 14.7859C17 14.3125 16.6162 13.9287 16.1429 13.9287H5.85714Z" fill="#494949"/>
<path d="M23.9997 3.5001C23.9997 5.39365 22.4647 6.92868 20.5711 6.92868C18.6775 6.92868 17.1426 5.39365 17.1426 3.5001C17.1426 1.60656 18.6775 0.0715332 20.5711 0.0715332C22.4647 0.0715332 23.9997 1.60656 23.9997 3.5001Z" fill="#D9291C"/>
</svg>
