<svg width="61" height="60" viewBox="0 0 61 60" fill="none" xmlns="http://www.w3.org/2000/svg">
<path d="M19.7639 55.8546C25.0308 58.6188 27.6642 60.0006 30.4971 60.0006V30.0006L2.41113 15.2185C2.36976 15.285 2.32917 15.3521 2.28927 15.4198C0.49707 18.4633 0.49707 22.2506 0.49707 29.8251V30.1761C0.49707 37.7505 0.49707 41.538 2.28927 44.5815C4.08144 47.625 7.30896 49.3188 13.7639 52.7061L19.7639 55.8546Z" fill="#1C274C"/>
<path opacity="0.7" d="M47.2283 7.2948L41.2283 4.14615C35.9615 1.38222 33.3281 0.000244141 30.4952 0.000244141C27.6623 0.000244141 25.0289 1.38222 19.762 4.14615L13.762 7.2948C7.45071 10.6068 4.22481 12.2997 2.40918 15.2182L30.4952 30.0002L58.5812 15.2182C56.7653 12.2997 53.5394 10.6068 47.2283 7.2948Z" fill="#1C274C"/>
<path opacity="0.5" d="M58.7049 15.4198C58.665 15.3521 58.6245 15.285 58.5831 15.2185L30.4971 30.0006V60.0006C33.33 60.0006 35.9634 58.6188 41.2302 55.8546L47.2302 52.7061C53.6853 49.3188 56.9127 47.625 58.7049 44.5815C60.4971 41.538 60.4971 37.7505 60.4971 30.1761V29.8251C60.4971 22.2506 60.4971 18.4633 58.7049 15.4198Z" fill="#1C274C"/>
<path d="M13.4681 7.4517C13.5666 7.39998 13.6658 7.3479 13.7659 7.2954L18.2465 4.94409L45.5488 19.9604L57.6199 13.9248C58.033 14.3926 58.3921 14.8855 58.7068 15.4201C59.1556 16.1821 59.4919 16.9908 59.7442 17.8939L47.749 23.8914V33.0008C47.749 34.2434 46.7416 35.2508 45.499 35.2508C44.2564 35.2508 43.249 34.2434 43.249 33.0008V26.1413L32.749 31.3913V59.7128C31.9783 59.9048 31.2457 60.0008 30.499 60.0008C29.7526 60.0008 29.0197 59.9048 28.249 59.7128V31.3913L1.25391 17.8939C1.50609 16.9908 1.84245 16.1821 2.29119 15.4201C2.60598 14.8855 2.96502 14.3926 3.37809 13.9248L30.499 27.4853L40.6576 22.406L13.4681 7.4517Z" fill="#1C274C"/>
</svg>
