<svg width="16" height="16" viewBox="0 0 16 16" fill="none" xmlns="http://www.w3.org/2000/svg">
<path fill-rule="evenodd" clip-rule="evenodd" d="M8 0C7.54999 0 7.13555 0.111844 6.6819 0.299475C6.24378 0.480655 5.73494 0.747691 5.10132 1.08021L3.56271 1.88764C2.78506 2.29572 2.16272 2.6223 1.68221 2.94319C1.1844 3.27564 0.800983 3.62568 0.521764 4.09985C0.243483 4.57244 0.118296 5.08416 0.0582625 5.69356C-7.28563e-06 6.28508 -7.27646e-06 7.01254 1.65397e-07 7.92752V8.07248C-7.27646e-06 8.98739 -7.28563e-06 9.7149 0.0582625 10.3065C0.118296 10.9159 0.243483 11.4276 0.521764 11.9001C0.800983 12.3743 1.1844 12.7244 1.68221 13.0568C2.16272 13.3777 2.78505 13.7043 3.56269 14.1124L5.10125 14.9197C5.73491 15.2523 6.24377 15.5193 6.6819 15.7005C7.13555 15.8881 7.54999 16 8 16C8.45001 16 8.86445 15.8881 9.3181 15.7005C9.7562 15.5193 10.2651 15.2523 10.8987 14.9198L12.4373 14.1124C13.215 13.7043 13.8372 13.3777 14.3178 13.0568C14.8156 12.7244 15.199 12.3743 15.4783 11.9001C15.7565 11.4276 15.8817 10.9159 15.9417 10.3065C16 9.7149 16 8.98746 16 8.07256V7.92744C16 7.01254 16 6.28508 15.9417 5.69356C15.8817 5.08416 15.7565 4.57244 15.4783 4.09985C15.199 3.62568 14.8156 3.27564 14.3178 2.94319C13.8372 2.6223 13.215 2.29572 12.4373 1.88763L10.8987 1.08022C10.2651 0.747699 9.7562 0.480662 9.3181 0.299475C8.86445 0.111844 8.45001 0 8 0ZM5.59687 2.0808C6.25899 1.73334 6.72298 1.49046 7.10847 1.33102C7.48368 1.17584 7.74735 1.11628 8 1.11628C8.25265 1.11628 8.51632 1.17584 8.89153 1.33102C9.27702 1.49046 9.74102 1.73334 10.4031 2.0808L11.8915 2.86186C12.7024 3.28743 13.2722 3.58721 13.6979 3.87149C13.9079 4.01174 14.0729 4.14198 14.2061 4.27292L11.7275 5.51225L5.40201 2.18306L5.59687 2.0808ZM4.23789 2.79396L4.1085 2.86186C3.29757 3.28742 2.72784 3.58721 2.30215 3.87149C2.09214 4.01174 1.92711 4.14198 1.79389 4.27292L8 7.376L10.4984 6.1268L4.39121 2.91251C4.33188 2.88129 4.28049 2.84088 4.23789 2.79396ZM1.25595 5.252C1.21837 5.41116 1.18996 5.59191 1.16916 5.803C1.1169 6.33347 1.11628 7.00606 1.11628 7.95646V8.04354C1.11628 8.99393 1.1169 9.66653 1.16916 10.197C1.22027 10.7158 1.31737 11.0513 1.48366 11.3337C1.64902 11.6145 1.8882 11.8521 2.30215 12.1285C2.72784 12.4128 3.29757 12.7126 4.1085 13.1382L5.59687 13.9192C6.25899 14.2666 6.72298 14.5095 7.10847 14.6689C7.23021 14.7193 7.3402 14.7596 7.44186 14.7911V8.34493L1.25595 5.252ZM8.55814 14.7911C8.6598 14.7596 8.76979 14.7193 8.89153 14.6689C9.27702 14.5095 9.74102 14.2666 10.4031 13.9192L11.8915 13.1382C12.7024 12.7126 13.2722 12.4128 13.6979 12.1285C14.1118 11.8521 14.351 11.6145 14.5163 11.3337C14.6826 11.0513 14.7798 10.7158 14.8308 10.197C14.8831 9.66653 14.8837 8.99393 14.8837 8.04354V7.95646C14.8837 7.00606 14.8831 6.33347 14.8308 5.803C14.81 5.5919 14.7816 5.41116 14.744 5.25199L12.2791 6.48448V8.74419C12.2791 9.05243 12.0292 9.30233 11.7209 9.30233C11.4127 9.30233 11.1628 9.05243 11.1628 8.74419V7.0426L8.55814 8.34493V14.7911Z" fill="#494949"/>
</svg>
