<svg width="80" height="81" viewBox="0 0 80 81" fill="none" xmlns="http://www.w3.org/2000/svg">
<path fill-rule="evenodd" clip-rule="evenodd" d="M40 0.5C37.75 0.5 35.6778 1.05922 33.4095 1.99738C31.2189 2.90327 28.6747 4.23846 25.5066 5.90104L17.8135 9.93818C13.9253 11.9786 10.8136 13.6115 8.41105 15.2159C5.92201 16.8782 4.00491 18.6284 2.60882 20.9993C1.21741 23.3622 0.59148 25.9208 0.291312 28.9678C-3.64281e-05 31.9254 -3.63823e-05 35.5627 8.26983e-07 40.1376V40.8624C-3.63823e-05 45.4369 -3.64281e-05 49.0745 0.291312 52.0323C0.59148 55.0794 1.21741 57.6379 2.60882 60.0007C4.00491 62.3716 5.92201 64.122 8.41105 65.7841C10.8136 67.3886 13.9252 69.0213 17.8135 71.0619L25.5063 75.0987C28.6745 76.7616 31.2188 78.0967 33.4095 79.0027C35.6778 79.9408 37.75 80.5 40 80.5C42.25 80.5 44.3222 79.9408 46.5905 79.0027C48.781 78.0967 51.3254 76.7616 54.4934 75.0991L62.1864 71.0619C66.0748 69.0213 69.1862 67.3886 71.5888 65.7841C74.0781 64.122 75.9952 62.3716 77.3913 60.0007C78.7825 57.6379 79.4084 55.0794 79.7086 52.0323C80 49.0745 80 45.4373 80 40.8628V40.1372C80 35.5627 80 31.9254 79.7086 28.9678C79.4084 25.9208 78.7825 23.3622 77.3913 20.9993C75.9952 18.6284 74.0781 16.8782 71.5888 15.2159C69.1862 13.6115 66.0748 11.9786 62.1864 9.93814L54.4934 5.90108C51.3254 4.23849 48.781 2.90331 46.5905 1.99738C44.3222 1.05922 42.25 0.5 40 0.5ZM27.9844 10.904C31.295 9.16668 33.6149 7.95228 35.5423 7.15511C37.4184 6.37922 38.7367 6.0814 40 6.0814C41.2633 6.0814 42.5816 6.37922 44.4577 7.15511C46.3851 7.95228 48.7051 9.16668 52.0156 10.904L59.4575 14.8093C63.5122 16.9371 66.3609 18.4361 68.4893 19.8575C69.5394 20.5587 70.3643 21.2099 71.0307 21.8646L58.6374 28.0612L27.01 11.4153L27.9844 10.904ZM21.1894 14.4698L20.5425 14.8093C16.4879 16.9371 13.6392 18.4361 11.5108 19.8575C10.4607 20.5587 9.63557 21.2099 8.96945 21.8646L40 37.38L52.4919 31.134L21.9561 15.0626C21.6594 14.9064 21.4025 14.7044 21.1894 14.4698ZM6.27974 26.76C6.09183 27.5558 5.94981 28.4596 5.84581 29.515C5.58452 32.1674 5.5814 35.5303 5.5814 40.2823V40.7177C5.5814 45.4697 5.58452 48.8327 5.84581 51.4849C6.10136 54.0792 6.58687 55.7566 7.41831 57.1687C8.2451 58.5726 9.44101 59.7603 11.5108 61.1426C13.6392 62.564 16.4879 64.0628 20.5425 66.1908L27.9844 70.0959C31.295 71.8332 33.6149 73.0477 35.5423 73.8447C36.1511 74.0966 36.701 74.298 37.2093 74.4554V42.2247L6.27974 26.76ZM42.7907 74.4554C43.299 74.298 43.8489 74.0966 44.4577 73.8447C46.3851 73.0477 48.7051 71.8332 52.0156 70.0959L59.4575 66.1908C63.5122 64.0628 66.3609 62.564 68.4893 61.1426C70.5589 59.7603 71.7548 58.5726 72.5816 57.1687C73.4132 55.7566 73.8988 54.0792 74.154 51.4849C74.4156 48.8327 74.4186 45.4697 74.4186 40.7177V40.2823C74.4186 35.5303 74.4156 32.1674 74.154 29.515C74.0502 28.4595 73.9081 27.5558 73.7202 26.7599L61.3954 32.9224V44.2209C61.3954 45.7621 60.1459 47.0116 58.6047 47.0116C57.0634 47.0116 55.814 45.7621 55.814 44.2209V35.713L42.7907 42.2247V74.4554Z" fill="#929292"/>
</svg>
