<svg width="18" height="16" viewBox="0 0 18 16" fill="none" xmlns="http://www.w3.org/2000/svg">
<path d="M17.3337 6.16602V3.83268C17.3337 2.89926 17.3337 2.43255 17.152 2.07603C16.9922 1.76243 16.7372 1.50746 16.4236 1.34767C16.0671 1.16602 15.6004 1.16602 14.667 1.16602H3.33366C2.40024 1.16602 1.93353 1.16602 1.57701 1.34767C1.2634 1.50746 1.00844 1.76243 0.848648 2.07603C0.666992 2.43255 0.666992 2.89926 0.666992 3.83268V6.83268C0.666992 7.7661 0.666992 8.23281 0.848648 8.58933C1.00844 8.90294 1.2634 9.1579 1.57701 9.31769C1.93353 9.49935 2.40024 9.49935 3.33366 9.49935H8.16699M9.00033 5.33268H9.00449M13.167 5.33268H13.1712M4.83366 5.33268H4.83783M15.042 11.166V9.70768C15.042 8.90227 14.3891 8.24935 13.5837 8.24935C12.7782 8.24935 12.1253 8.90227 12.1253 9.70768V11.166M9.20866 5.33268C9.20866 5.44774 9.11539 5.54102 9.00033 5.54102C8.88527 5.54102 8.79199 5.44774 8.79199 5.33268C8.79199 5.21762 8.88527 5.12435 9.00033 5.12435C9.11539 5.12435 9.20866 5.21762 9.20866 5.33268ZM13.3753 5.33268C13.3753 5.44774 13.2821 5.54102 13.167 5.54102C13.0519 5.54102 12.9587 5.44774 12.9587 5.33268C12.9587 5.21762 13.0519 5.12435 13.167 5.12435C13.2821 5.12435 13.3753 5.21762 13.3753 5.33268ZM5.04199 5.33268C5.04199 5.44774 4.94872 5.54102 4.83366 5.54102C4.7186 5.54102 4.62533 5.44774 4.62533 5.33268C4.62533 5.21762 4.7186 5.12435 4.83366 5.12435C4.94872 5.12435 5.04199 5.21762 5.04199 5.33268ZM12.0003 14.4993H15.167C15.6337 14.4993 15.8671 14.4993 16.0453 14.4085C16.2021 14.3286 16.3296 14.2011 16.4095 14.0443C16.5003 13.8661 16.5003 13.6327 16.5003 13.166V12.4993C16.5003 12.0326 16.5003 11.7993 16.4095 11.621C16.3296 11.4642 16.2021 11.3367 16.0453 11.2568C15.8671 11.166 15.6337 11.166 15.167 11.166H12.0003C11.5336 11.166 11.3003 11.166 11.122 11.2568C10.9652 11.3367 10.8377 11.4642 10.7578 11.621C10.667 11.7993 10.667 12.0326 10.667 12.4993V13.166C10.667 13.6327 10.667 13.8661 10.7578 14.0443C10.8377 14.2011 10.9652 14.3286 11.122 14.4085C11.3003 14.4993 11.5336 14.4993 12.0003 14.4993Z" stroke="#494949" stroke-width="1.2" stroke-linecap="round" stroke-linejoin="round"/>
</svg>
