<svg width="64" height="64" viewBox="0 0 64 64" fill="none" xmlns="http://www.w3.org/2000/svg">
<g clip-path="url(#clip0_396_1264)">
<path d="M32 64C49.6731 64 64 49.6731 64 32C64 14.3269 49.6731 0 32 0C14.3269 0 0 14.3269 0 32C0 49.6731 14.3269 64 32 64Z" fill="white"/>
<path d="M6.61419 12.5156C4.10056 15.786 2.20519 19.5554 1.10156 23.6502H17.7488L6.61419 12.5156Z" fill="#00237D"/>
<path d="M62.897 23.6521C61.7934 19.5573 59.8979 15.788 57.3844 12.5176L46.25 23.6521H62.897Z" fill="#00237D"/>
<path d="M1.10156 40.3477C2.20531 44.4424 4.10069 48.2118 6.61419 51.482L17.7484 40.3477H1.10156Z" fill="#00237D"/>
<path d="M51.4822 6.61431C48.2118 4.10069 44.4425 2.20531 40.3477 1.10156V17.7487L51.4822 6.61431Z" fill="#00237D"/>
<path d="M12.5156 57.3843C15.786 59.8979 19.5554 61.7932 23.6501 62.897V46.25L12.5156 57.3843Z" fill="#00237D"/>
<path d="M23.65 1.10156C19.5552 2.20531 15.7859 4.10069 12.5156 6.61419L23.65 17.7486V1.10156Z" fill="#00237D"/>
<path d="M40.3477 62.897C44.4424 61.7932 48.2118 59.8979 51.482 57.3844L40.3477 46.25V62.897Z" fill="#00237D"/>
<path d="M46.25 40.3477L57.3844 51.4822C59.8979 48.2119 61.7934 44.4424 62.897 40.3477H46.25Z" fill="#00237D"/>
<path d="M63.7291 27.8261H36.1741H36.174V0.270875C34.8076 0.093 33.4146 0 32 0C30.5851 0 29.1924 0.093 27.8261 0.270875V27.8259V27.826H0.270875C0.093 29.1924 0 30.5854 0 32C0 33.4149 0.093 34.8076 0.270875 36.1739H27.8259H27.826V63.7291C29.1924 63.907 30.5851 64 32 64C33.4146 64 34.8076 63.9071 36.1739 63.7291V36.1741V36.174H63.7291C63.907 34.8076 64 33.4149 64 32C64 30.5854 63.907 29.1924 63.7291 27.8261Z" fill="#D0142C"/>
<path d="M40.3477 40.3478L54.6272 54.6273C55.2839 53.9708 55.9104 53.2844 56.5082 52.5729L44.2829 40.3477H40.3477V40.3478Z" fill="#D0142C"/>
<path d="M23.6546 40.3477H23.6544L9.375 54.627C10.0315 55.2838 10.7179 55.9103 11.4294 56.508L23.6546 44.2825V40.3477Z" fill="#D0142C"/>
<path d="M23.6527 23.651V23.6507L9.37319 9.37109C8.71644 10.0276 8.08994 10.714 7.49219 11.4255L19.7176 23.6508L23.6527 23.651Z" fill="#D0142C"/>
<path d="M40.3477 23.6528L54.6273 9.37306C53.9708 8.71631 53.2844 8.08981 52.5729 7.49219L40.3477 19.7176V23.6528Z" fill="#D0142C"/>
</g>
<defs>
<clipPath id="clip0_396_1264">
<rect width="64" height="64" fill="white"/>
</clipPath>
</defs>
</svg>
 