<svg width="64" height="64" viewBox="0 0 64 64" fill="none" xmlns="http://www.w3.org/2000/svg">
<g clip-path="url(#clip0_537_1265)">
<path d="M13.752 58.2852H50.2454L50.2473 58.2832H13.75L13.752 58.2852Z" fill="#E73625"/>
<path d="M32 0.00195312C31.3714 0.00195312 30.7479 0.0246521 30.1289 0.0600518H33.8714C33.2519 0.0246521 32.6285 0.00195312 32 0.00195312Z" fill="#E73625"/>
<path d="M41.4551 11.704H56.7354C54.9204 9.49452 52.811 7.53862 50.4741 5.88281H39C39.9494 7.55322 40.7659 9.52425 41.4551 11.704Z" fill="#F3F4F5"/>
<path d="M39.0034 5.8813H50.4775C45.7341 2.51982 40.0392 0.414752 33.872 0.0585938H32.8867C35.7895 0.42394 37.1228 2.57224 39.0034 5.8813Z" fill="#E73625"/>
<path d="M62.806 23.3486C62.237 21.3194 61.474 19.3726 60.5363 17.5273H42.957C43.3132 19.3964 43.5942 21.3486 43.8023 23.3486H62.806Z" fill="#F3F4F5"/>
<path d="M41.9662 17.5253H60.5337C59.4757 15.4441 58.2045 13.4912 56.7352 11.7031H40.5156C41.0876 13.5135 41.5732 15.4664 41.9662 17.5253Z" fill="#E73625"/>
<path d="M44.4766 34.9935H63.856C63.948 34.0088 64 33.0108 64 32.0024C64 31.0479 63.95 30.1056 63.8681 29.1719H44.4812C44.5443 31.108 44.5432 33.0584 44.4766 34.9935Z" fill="#F3F4F5"/>
<path d="M63.866 29.1708C63.6906 27.1714 63.3304 25.2262 62.8044 23.3496H42.9844C43.1834 25.2559 43.3149 27.2063 43.379 29.1708H63.866Z" fill="#E73625"/>
<path d="M42.625 46.6386H60.4548C61.4057 44.7954 62.1807 42.847 62.7619 40.8164H43.487C43.2748 42.8193 42.9867 44.7712 42.625 46.6386Z" fill="#F3F4F5"/>
<path d="M62.76 40.8154C63.297 38.9393 63.6699 36.9941 63.8553 34.9941H43.8715C43.8033 36.9602 43.6679 38.91 43.4648 40.8154H62.76Z" fill="#E73625"/>
<path d="M50.2478 58.2822C52.6185 56.633 54.7577 54.675 56.6015 52.4609H41.5876C40.8858 54.6498 40.0525 56.6177 39.0859 58.2822H50.2478Z" fill="#F3F4F5"/>
<path d="M41.0234 52.4608H56.6023C58.0888 50.6748 59.3792 48.7218 60.4528 46.6387H42.4923C42.0937 48.699 41.6031 50.6529 41.0234 52.4608Z" fill="#E73625"/>
<path d="M30.8425 63.9797C30.7777 63.9777 30.7132 63.9747 30.6484 63.9727C30.7132 63.9745 30.7779 63.9777 30.8425 63.9797Z" fill="#E73625"/>
<path d="M32 64.0027C38.7842 64.0027 45.0702 61.8851 50.2472 58.2852H38.6659C36.6105 61.8265 35.2543 64.0027 32 64.0027Z" fill="#E73625"/>
<path d="M31.9994 64.0012C31.6108 64.0012 31.2248 63.9922 30.8398 63.9785C31.2288 63.9916 31.6153 64.0012 31.9994 64.0012Z" fill="#E73625"/>
<path d="M40.0621 5.88281H13.5235C11.1862 7.53862 9.07723 9.49439 7.26172 11.704H42.5167C41.8274 9.52425 41.0115 7.55322 40.0621 5.88281Z" fill="#F3F4F5"/>
<path d="M13.5234 5.8813H40.062C38.1809 2.57224 35.7885 0.42394 32.8857 0.0585938H30.1284C23.9612 0.414752 18.2663 2.51982 13.5234 5.8813Z" fill="#E73625"/>
<path d="M1.19531 23.3486H44.8139C44.6057 21.3482 44.3248 19.3964 43.9686 17.5273H3.46494C2.52712 19.3727 1.76427 21.3194 1.19531 23.3486Z" fill="#F3F4F5"/>
<path d="M7.25897 11.7031C5.79069 13.4912 4.51847 15.444 3.46094 17.5253H43.9641C43.5714 15.4668 43.086 13.514 42.5139 11.7031H7.25897Z" fill="#E73625"/>
<path d="M0 32.002C0 33.0104 0.052559 34.0084 0.144031 34.9931H45.2031C45.2698 33.0579 45.2707 31.108 45.2076 29.1719H0.13187C0.0499919 30.1052 0 31.0475 0 32.002Z" fill="#F3F4F5"/>
<path d="M0.132812 29.1708H45.208C45.1439 27.2059 45.012 25.2561 44.8134 23.3496H1.19386C0.667861 25.2266 0.307649 27.1714 0.132812 29.1708Z" fill="#E73625"/>
<path d="M44.7992 40.8145H1.24219C1.82331 42.8456 2.59886 44.7934 3.54924 46.6366H43.9371C44.299 44.7696 44.5864 42.8178 44.7992 40.8145Z" fill="#F3F4F5"/>
<path d="M1.23989 40.8154H44.7969C44.9995 38.91 45.1353 36.9596 45.2036 34.9941H0.144531C0.329907 36.9945 0.703359 38.9393 1.23989 40.8154Z" fill="#E73625"/>
<path d="M13.7521 58.2822H39.9653C40.9319 56.6173 41.7656 54.6498 42.4669 52.4609H7.39844C9.24219 54.675 11.3809 56.633 13.7521 58.2822Z" fill="#F3F4F5"/>
<path d="M3.54688 46.6387C4.62062 48.7218 5.91095 50.6748 7.39746 52.4608H42.466C43.045 50.653 43.5356 48.6991 43.9342 46.6387H3.54688Z" fill="#E73625"/>
<path d="M30.6464 63.973C30.7111 63.975 30.7757 63.978 30.8405 63.98C31.2255 63.9937 31.6115 64.0027 32 64.0027C35.2545 64.0027 37.9081 61.8266 39.964 58.2852H13.7539C18.5838 61.6443 24.3812 63.7118 30.6464 63.973Z" fill="#E73625"/>
<path d="M31.3388 0.0175781C14.9405 0.351173 1.57513 13.0125 0.136719 29.1178H31.3393V0.0175781H31.3388Z" fill="#283991"/>
<path d="M6.40303 18.1309L6.89052 19.632H8.47L7.19223 20.5602L7.68026 22.0624L6.40303 21.1336L5.12621 22.0624L5.6133 20.5602L4.33594 19.632H5.91541L6.40303 18.1309Z" fill="#F3F4F5"/>
<path d="M6.40303 23.4355L6.89052 24.9376H8.47L7.19223 25.8658L7.68026 27.368L6.40303 26.4392L5.12621 27.368L5.6133 25.8658L4.33594 24.9376H5.91541L6.40303 23.4355Z" fill="#F3F4F5"/>
<path d="M11.7083 10.1738L12.1959 11.6755H13.7748L12.4975 12.6042L12.9851 14.1054L11.7083 13.1777L10.4309 14.1054L10.9185 12.6042L9.64062 11.6755H11.2201L11.7083 10.1738Z" fill="#F3F4F5"/>
<path d="M11.7083 15.4785L12.1959 16.9802H13.7748L12.4975 17.9078L12.9851 19.41L11.7083 18.4824L10.4309 19.41L10.9185 17.9078L9.64062 16.9802H11.2201L11.7083 15.4785Z" fill="#F3F4F5"/>
<path d="M11.7083 20.7832L12.1959 22.2854H13.7748L12.4975 23.2125L12.9851 24.7147L11.7083 23.7861L10.4309 24.7147L10.9185 23.2125L9.64062 22.2854H11.2201L11.7083 20.7832Z" fill="#F3F4F5"/>
<path d="M2.3771 24.7152L1.88907 23.213L3.16643 22.2854H1.58791L1.55251 22.1758C1.37916 22.7119 1.22256 23.2545 1.07812 23.8032L1.10042 23.7866L2.3771 24.7152Z" fill="#F3F4F5"/>
<path d="M5.12669 16.7581L6.40351 15.8295L7.68087 16.7581L7.19284 15.2559L8.4702 14.3273H6.89073L6.4031 12.8262L5.91548 14.3273H5.33341C5.22532 14.491 5.12074 14.6557 5.01562 14.8219L5.61391 15.2559L5.12669 16.7581Z" fill="#F3F4F5"/>
<path d="M11.7081 7.8751L12.9849 8.80279L12.4973 7.30168L13.7741 6.37305H12.8621C12.0875 6.95214 11.3402 7.56502 10.6222 8.21167L10.4297 8.80279L11.7081 7.8751Z" fill="#F3F4F5"/>
<path d="M15.7344 6.14958L17.0117 5.22095L18.2886 6.14958L17.8009 4.64739L19.0778 3.71971H17.4988L17.4326 3.51758C16.8976 3.79091 16.3681 4.07533 15.8506 4.37798L16.2215 4.64726L15.7344 6.14958Z" fill="#F3F4F5"/>
<path d="M17.0128 7.52344L17.5004 9.02414H19.0794L17.802 9.95277L18.2896 11.455L17.0128 10.5262L15.7355 11.455L16.2231 9.95277L14.9453 9.02414H16.5247L17.0128 7.52344Z" fill="#F3F4F5"/>
<path d="M17.0128 12.8281L17.5004 14.3288H19.0794L17.802 15.2575L18.2896 16.7596L17.0128 15.8309L15.7355 16.7596L16.2231 15.2575L14.9453 14.3288H16.5247L17.0128 12.8281Z" fill="#F3F4F5"/>
<path d="M17.0128 18.1309L17.5004 19.632H19.0794L17.802 20.5602L18.2896 22.0624L17.0128 21.1336L15.7355 22.0624L16.2231 20.5602L14.9453 19.632H16.5247L17.0128 18.1309Z" fill="#F3F4F5"/>
<path d="M17.0128 23.4355L17.5004 24.9376H19.0794L17.802 25.8658L18.2896 27.368L17.0128 26.4392L15.7355 27.368L16.2231 25.8658L14.9453 24.9376H16.5247L17.0128 23.4355Z" fill="#F3F4F5"/>
<path d="M22.3175 4.87109L22.8051 6.37274H24.3841L23.1072 7.30151L23.5943 8.80262L22.3175 7.87493L21.0397 8.80262L21.5278 7.30151L20.25 6.37274H21.8293L22.3175 4.87109Z" fill="#F3F4F5"/>
<path d="M22.3175 10.1738L22.8051 11.6755H24.3841L23.1072 12.6042L23.5943 14.1054L22.3175 13.1777L21.0397 14.1054L21.5278 12.6042L20.25 11.6755H21.8293L22.3175 10.1738Z" fill="#F3F4F5"/>
<path d="M22.3175 15.4785L22.8051 16.9802H24.3841L23.1072 17.9078L23.5943 19.41L22.3175 18.4824L21.0397 19.41L21.5278 17.9078L20.25 16.9802H21.8293L22.3175 15.4785Z" fill="#F3F4F5"/>
<path d="M22.3175 20.7832L22.8051 22.2854H24.3841L23.1072 23.2125L23.5943 24.7147L22.3175 23.7861L21.0397 24.7147L21.5278 23.2125L20.25 22.2854H21.8293L22.3175 20.7832Z" fill="#F3F4F5"/>
<path d="M27.6222 2.21875L28.1098 3.7204H29.6887L28.4114 4.64808L28.899 6.15027L27.6222 5.22151L26.3444 6.15027L26.8325 4.64808L25.5547 3.7204H27.1336L27.6222 2.21875Z" fill="#F3F4F5"/>
<path d="M27.6222 7.52344L28.1098 9.02414H29.6887L28.4114 9.95277L28.899 11.455L27.6222 10.5262L26.3444 11.455L26.8325 9.95277L25.5547 9.02414H27.1336L27.6222 7.52344Z" fill="#F3F4F5"/>
<path d="M27.6222 12.8281L28.1098 14.3288H29.6887L28.4114 15.2575L28.899 16.7596L27.6222 15.8309L26.3444 16.7596L26.8325 15.2575L25.5547 14.3288H27.1336L27.6222 12.8281Z" fill="#F3F4F5"/>
<path d="M27.6222 18.1309L28.1098 19.632H29.6887L28.4114 20.5602L28.899 22.0624L27.6222 21.1336L26.3444 22.0624L26.8325 20.5602L25.5547 19.632H27.1336L27.6222 18.1309Z" fill="#F3F4F5"/>
<path d="M27.6222 23.4355L28.1098 24.9376H29.6887L28.4114 25.8658L28.899 27.368L27.6222 26.4392L26.3444 27.368L26.8325 25.8658L25.5547 24.9376H27.1336L27.6222 23.4355Z" fill="#F3F4F5"/>
</g>
<defs>
<clipPath id="clip0_537_1265">
<rect width="64" height="64" fill="white"/>
</clipPath>
</defs>
</svg>
