<svg width="36" height="31" viewBox="0 0 36 31" fill="none" xmlns="http://www.w3.org/2000/svg">
<path d="M12.6062 30.5953H23.4063C26.8004 30.5953 28.4974 30.5953 29.5519 29.5409C30.4006 28.6922 30.5662 27.427 30.5984 25.1953H5.41406C5.44634 27.427 5.61186 28.6922 6.46065 29.5409C7.51506 30.5953 9.21212 30.5953 12.6062 30.5953Z" fill="#15221B"/>
<path d="M16.6562 5.40234H12.6062C9.21213 5.40234 7.51508 5.40234 6.46067 6.45677C5.40625 7.51117 5.40625 9.20823 5.40625 12.6023V23.4023C5.40625 24.0642 5.40625 24.6616 5.41408 25.2023H30.5985C30.6063 24.6616 30.6062 24.0642 30.6062 23.4023V12.6023C30.6062 9.20823 30.6062 7.51117 29.5518 6.45677C28.4974 5.40234 26.8003 5.40234 23.4062 5.40234H19.3562V14.353L20.5813 12.9238C21.0664 12.3577 21.9187 12.2921 22.4848 12.7773C23.0509 13.2626 23.1164 14.1149 22.6312 14.681L19.0312 18.8809C18.7748 19.1801 18.4003 19.3523 18.0062 19.3523C17.6122 19.3523 17.2376 19.1801 16.9813 18.8809L13.3813 14.681C12.896 14.1149 12.9616 13.2626 13.5277 12.7773C14.0938 12.2921 14.9461 12.3577 15.4312 12.9238L16.6562 14.353V5.40234Z" fill="#15221B"/>
<path d="M29 0H7C3.13402 0 0 3.23996 0 7.23665C0 10.6642 2.30504 13.5353 5.4 14.2834V12.6C5.4 9.20588 5.4 7.50883 6.45442 6.45442C7.50883 5.4 9.20588 5.4 12.6 5.4H16.65H19.35H23.4C26.7941 5.4 28.4911 5.4 29.5456 6.45442C30.6 7.50883 30.6 9.20588 30.6 12.6V14.2834C33.6949 13.5353 36 10.6642 36 7.23665C36 3.23996 32.866 0 29 0Z" fill="#15221B"/>
</svg>
