<svg width="69" height="69" viewBox="0 0 69 69" fill="none" xmlns="http://www.w3.org/2000/svg">
<path d="M58.0381 30.2637C59.444 29.8904 58.4973 26.6871 54.0469 16.6003C49.329 5.92589 47.8998 3.74287 46.4668 4.73908C44.513 6.1333 55.7488 30.8088 58.0381 30.2637Z" fill="#F87525"/>
<path d="M12.7372 54.8286C14.151 58.9454 15.0385 59.2324 24.9981 58.8143C35.2854 58.3934 37.1495 57.9503 37.2303 56.0159C37.3624 52.5079 34.6024 51.7462 21.8522 51.6324C12.4453 51.5538 11.6937 51.7901 12.7372 54.8286Z" fill="#F87525"/>
<path d="M19.0745 27.2077C20.0519 30.1813 21.0103 31.0575 25.7178 33.3419C39.7077 40.0649 49.1675 45.9769 47.1489 40.227C46.341 37.8746 43.8692 36.3565 27.7664 27.9484C18.8428 23.3425 17.7929 23.2209 19.0745 27.2077Z" fill="#F87525"/>
</svg>
