<svg width="125" height="148" viewBox="0 0 125 148" fill="none" xmlns="http://www.w3.org/2000/svg">
<path fill-rule="evenodd" clip-rule="evenodd" d="M113.736 3.58409C109.689 4.02294 107.565 3.865 90.56 1.86884C68.0275 -0.743375 68.9687 -0.873804 72.7015 4.54385C79.6773 14.5896 80.4009 16.674 77.93 19.3971C73.8356 23.8735 69.2753 24.9326 59.1913 23.72C38.3453 21.2618 31.0616 28.7647 33.0421 50.7779C34.858 70.9201 28.4356 75.3114 0.929902 72.7344C-28.118 70.0207 -39.8986 78.0545 -40.5228 101.07C-40.9687 117.335 -37.2195 118.565 -35.3196 102.767C-32.5594 79.8134 -22.7058 72.815 2.74448 75.8755C29.7792 79.1265 41.4081 70.7335 39.7654 49.1508C38.2836 29.8767 44.1127 24.3424 63.5124 26.6753C72.1079 27.7089 76.9256 26.5345 82.7718 22.0739C84.8159 20.4686 86.7481 19.3858 86.9094 19.259C90.2793 16.3518 81.6446 5.52178 81.7023 5.04159C81.7196 4.89753 86.4486 5.2715 92.2109 5.96444C101.676 7.054 111.09 7.35793 115.107 6.76925C116.15 6.6024 116.234 6.70984 115.806 7.43773C113.325 11.8646 107.939 26.2696 106.018 33.7354C105.459 35.9576 104.946 37.7956 104.844 37.832C104.79 37.8743 103.619 36.2722 102.302 34.2627C99.1295 29.4483 99.6693 29.4158 88.9997 35.0987C83.0155 38.2762 79.456 39.1147 71.9994 39.1435C53.9609 39.264 50.9845 41.731 50.4851 56.8208C49.763 79.4345 40.4847 91.3744 22.1308 93.308C19.9602 93.5341 15.619 93.9863 12.513 94.2948C-5.33779 96.0939 -9.28337 104.193 -11.681 136.689C-12.7584 151.32 -5.67386 149.931 -5.60283 142.048C-5.48547 110.69 -0.0184764 102.092 21.3917 99.4544C46.9029 96.3356 56.3196 85.6789 56.3664 59.7689C56.4157 47.2067 59.6299 44.3782 73.5193 44.7332C85.0269 45.0453 88.3004 43.3443 96.8435 38.3314C96.8435 38.3314 102.844 45.1419 104.063 46.75C106.006 49.2245 108.858 48.2038 109.969 44.635C111.211 40.7899 120.004 17.4906 122.188 12.2973C125.86 3.62955 124.733 2.47087 113.736 3.58409Z" fill="#86BF4C"/>
</svg>
