<svg width="338" height="229" viewBox="0 0 338 229" fill="none" xmlns="http://www.w3.org/2000/svg">
<path d="M68.5679 375.929C61.8726 366.215 55.3436 354.061 49.1543 339.811C42.8311 325.085 37.4573 310.057 33.07 294.831C28.4206 278.889 24.7236 262.786 22.0004 246.616C19.3465 231.348 17.8491 216.036 17.5218 200.818C17.2823 186.935 18.4246 175.311 20.8314 166.341C23.1429 157.689 26.566 151.854 30.9839 148.985C35.4018 146.115 40.5816 146.371 46.429 149.764C52.4359 153.235 58.9138 159.957 65.6091 169.672C72.3044 179.386 78.8697 191.581 85.0227 205.789C91.3477 220.517 96.7192 235.547 101.1 250.776C105.763 266.713 109.47 282.812 112.198 298.98C114.848 314.248 116.346 329.56 116.677 344.779C116.873 358.7 115.752 370.305 113.353 379.268C111.034 387.927 107.611 393.761 103.2 396.624C98.7898 399.487 93.6026 399.237 87.7553 395.845C81.7411 392.38 75.2704 385.652 68.5752 375.937L68.5679 375.929ZM68.5867 377.081C96.2507 417.293 118.056 403.166 117.22 345.571C116.383 287.976 93.2835 208.721 65.5903 168.534C37.8972 128.348 16.128 142.443 17.0008 200.006C17.8737 257.569 40.9372 336.856 68.6231 377.049L68.5867 377.081Z" stroke="white" stroke-opacity="0.24" stroke-width="0.20351"/>
<path d="M62.8271 379.22C56.2815 367.855 50.0185 353.991 44.2986 338.101C38.4704 321.787 33.6313 305.235 29.8103 288.546C25.805 271.333 22.7936 254.015 20.792 236.684C18.8353 220.615 18.1027 204.565 18.6007 188.68C19.1762 174.313 21.0162 162.6 24.0763 153.873C27.0048 145.451 30.9787 140.124 35.8159 138.083C40.653 136.042 46.1498 137.363 52.1318 142.024C58.2951 146.818 64.7836 155.064 71.3219 166.421C77.8603 177.778 84.1305 191.649 89.8505 207.539C95.6804 223.855 100.517 240.41 104.331 257.101C108.339 274.312 111.353 291.628 113.357 308.957C115.297 325.04 116.016 341.102 115.505 356.999C114.929 371.366 113.089 383.079 110.036 391.8C107.108 400.222 103.134 405.548 98.2967 407.59C93.4596 409.631 87.9629 408.31 81.9808 403.649C75.8175 398.855 69.3218 390.615 62.7907 379.252L62.8271 379.22ZM62.744 380.432C89.7944 427.421 113.667 417.358 116.04 357.93C118.413 298.501 98.4263 212.238 71.3687 165.241C44.311 118.243 20.4454 128.314 18.0654 187.75C15.6855 247.185 35.6864 333.435 62.744 380.432Z" stroke="white" stroke-opacity="0.24" stroke-width="0.20351"/>
<path d="M56.5426 381.425C49.5112 366.446 43.717 351.026 39.2261 335.34C34.0228 317.483 29.8486 299.453 26.7258 281.346C23.4686 262.962 21.2536 244.529 20.0922 226.141C18.9518 209.379 19.105 192.709 20.5505 176.285C21.9697 161.613 24.587 149.946 28.3074 141.586C31.9107 133.504 36.3987 128.85 41.6476 127.731C46.8964 126.612 52.6299 129.097 58.7028 135.11C64.9931 141.34 71.3686 151.102 77.6555 164.127C84.6907 179.104 90.4851 194.525 94.9721 210.212C100.198 228.038 104.395 246.039 107.538 264.119C110.791 282.503 113.006 300.935 114.172 319.324C115.312 336.086 115.159 352.756 113.713 369.179C112.294 383.851 109.677 395.519 105.949 403.885C102.353 411.96 97.8651 416.615 92.6162 417.734C87.3674 418.853 81.6339 416.368 75.561 410.355C69.2707 404.125 62.8952 394.362 56.6083 381.338L56.5426 381.425ZM56.4888 382.539C82.4893 436.411 108.341 430.9 114.226 370.261C120.112 309.622 103.754 216.847 77.7603 162.983C51.767 109.118 25.908 114.621 20.0228 175.261C14.1376 235.9 30.4227 328.768 56.4378 382.613L56.4888 382.539Z" stroke="white" stroke-opacity="0.24" stroke-width="0.20351"/>
<path d="M49.7833 382.4C43.2379 365.715 37.9831 348.677 34.0707 331.455C25.1451 292.857 20.4101 253.88 19.9542 215.251C19.678 197.955 20.7801 180.833 23.2497 164.05C25.5919 149.251 29.0154 137.764 33.4391 129.924C37.7168 122.343 42.7405 118.458 48.3571 118.388C53.9738 118.318 59.9147 122.037 66.0057 129.465C72.3213 137.148 78.5254 148.493 84.4447 163.17C90.9901 179.856 96.2449 196.893 100.157 214.115C104.646 233.384 108.062 252.767 110.387 272.169C112.777 291.595 114.075 311.01 114.274 330.319C114.548 347.617 113.443 364.742 110.971 381.527C108.636 396.319 105.213 407.806 100.782 415.653C96.5112 423.227 91.4803 427.118 85.8709 427.182C80.2615 427.245 74.3133 423.533 68.215 416.111C61.9068 408.422 55.7026 397.077 49.7833 382.4V382.4ZM49.5693 383.625C74.0623 444.347 101.761 443.956 111.44 382.749C121.12 321.543 109.101 222.696 84.615 161.983C60.1293 101.27 32.4237 101.652 22.7442 162.859C13.0648 224.066 25.0764 322.904 49.5693 383.625V383.625Z" stroke="white" stroke-opacity="0.24" stroke-width="0.20351"/>
<path d="M42.5197 382.052C36.5823 363.73 31.9847 345.141 28.7667 326.445C25.1209 305.857 22.5991 285.215 21.2133 264.617C19.7807 244.303 19.5065 224.064 20.3921 204C21.3016 184.213 23.4692 166.734 26.785 151.983C30.1007 137.233 34.3805 126.116 39.5145 118.95C44.4735 112.025 50.0034 109.052 55.9586 110.115C61.9137 111.179 68.0037 116.227 74.04 125.105C80.2862 134.31 86.2174 147.238 91.689 163.595C97.6349 181.916 102.233 200.506 105.442 219.202C109.094 239.788 111.619 260.428 113.003 281.024C114.435 301.338 114.71 321.577 113.824 341.641C112.914 361.428 110.747 378.907 107.431 393.658C104.115 408.409 99.8355 419.525 94.7015 426.691C89.7425 433.616 84.2127 436.589 78.2575 435.526C72.3023 434.463 66.2123 429.414 60.176 420.536C53.9226 411.338 47.9987 398.403 42.5197 382.052V382.052ZM42.2768 383.245C64.783 450.711 94.1522 455.947 107.871 394.95C121.59 333.953 114.438 229.811 91.9321 162.344C69.4259 94.8776 40.0567 89.6421 26.338 150.639C12.6193 211.636 19.7488 315.798 42.255 383.264L42.2768 383.245Z" stroke="white" stroke-opacity="0.24" stroke-width="0.20351"/>
<path d="M34.9022 380.19C29.6806 360.313 25.8602 340.249 23.4714 320.156C20.7847 298.4 19.2846 276.654 18.9783 255.019C18.5912 233.992 19.4323 213.11 21.4972 192.482C23.5992 172.33 26.8716 154.755 31.2111 140.256C35.5507 125.757 40.759 115.21 46.5883 108.877C52.2282 102.769 58.2639 100.84 64.5137 103.148C70.7635 105.456 76.9225 111.889 82.8168 122.251C88.8919 132.964 94.4628 147.51 99.3055 165.4C104.523 185.277 108.343 205.341 110.736 225.433C113.415 247.189 114.915 268.935 115.229 290.571C115.611 311.607 114.76 332.498 112.681 353.133C110.587 373.279 107.314 390.854 102.968 405.359C98.6207 419.865 93.4487 430.409 87.6121 436.748C81.9722 442.856 75.9365 444.785 69.6867 442.477C63.4369 440.169 57.2707 433.742 51.3836 423.374C45.3085 412.661 39.7376 398.115 34.8949 380.225L34.9022 380.19ZM34.5357 381.418C54.6051 455.413 85.3314 466.799 103.349 406.805C121.366 346.811 119.691 238.225 99.6574 164.214C79.6244 90.2016 48.8181 78.8419 30.8371 138.804C12.8561 198.765 14.4954 307.383 34.5212 381.402L34.5357 381.418Z" stroke="white" stroke-opacity="0.24" stroke-width="0.20351"/>
<path d="M26.8814 376.739C22.5032 355.434 19.5926 334.02 18.1714 312.659C16.5593 289.894 16.2018 267.21 17.1007 244.711C17.8752 223.169 19.9623 201.855 23.3503 180.888C26.717 160.571 31.1732 143.165 36.6087 129.132C42.0442 115.099 48.1079 105.288 54.6539 99.9595C60.9815 94.8234 67.4718 94.0713 73.9724 97.721C80.4729 101.371 86.6209 109.23 92.2715 121.107C98.1679 133.438 103.183 149.467 107.302 168.87C111.682 190.173 114.595 211.585 116.019 232.944C117.638 255.706 117.998 278.389 117.097 300.885C116.324 322.43 114.234 343.747 110.841 364.715C107.481 385.025 103.018 402.437 97.5895 416.464C92.1613 430.491 86.0903 440.308 79.5442 445.637C73.2167 450.773 66.7191 451.531 60.2258 447.875C53.7325 444.219 47.5773 436.366 41.9267 424.49C36.0665 412.199 31.0155 396.129 26.896 376.726L26.8814 376.739ZM26.4497 377.879C43.4729 458.106 75.4678 476.101 97.9268 418.051C120.386 360.001 124.772 247.944 107.727 167.736C90.6816 87.5286 58.7085 69.5146 36.2496 127.565C13.7906 185.615 9.412 297.665 26.4206 377.905L26.4497 377.879Z" stroke="white" stroke-opacity="0.24" stroke-width="0.20351"/>
<path d="M18.6048 371.558C15.1919 348.955 13.3238 326.327 13.0141 303.838C12.5874 280.268 13.4933 256.854 15.7274 233.711C17.7393 211.877 21.1573 190.367 25.9602 169.315C30.6708 149.099 36.3902 132.1 42.9355 118.768C49.4808 105.437 56.4938 96.6006 63.7125 92.432C70.6982 88.4249 77.6066 88.9549 84.2995 94.0562C90.9924 99.1576 97.0275 108.504 102.34 121.876C107.847 135.718 112.299 153.281 115.557 174.07C118.979 196.659 120.861 219.274 121.191 241.751C121.615 265.321 120.709 288.735 118.478 311.879C116.466 333.713 113.048 355.223 108.245 376.275C103.535 396.49 97.8153 413.49 91.27 426.821C84.7247 440.153 77.7117 448.989 70.4931 453.158C63.5073 457.165 56.5916 456.641 49.8987 451.54C43.2058 446.438 37.1707 437.092 31.8583 423.72C26.3509 409.878 21.8997 392.315 18.6412 371.526L18.6048 371.558ZM18.1007 372.615C31.5702 458.602 64.4765 483.651 91.5489 428.518C118.621 373.385 129.64 258.947 116.156 172.929C102.672 86.9116 69.78 61.8935 42.7003 117.033C15.6207 172.172 4.58025 286.63 18.0643 372.647L18.1007 372.615Z" stroke="white" stroke-opacity="0.24" stroke-width="0.20351"/>
<path d="M10.1742 364.571C7.84405 340.845 7.14404 317.183 8.07929 293.757C8.94856 269.602 11.2339 245.692 14.9234 222.152C18.2446 200.258 23.0738 178.803 29.3772 157.937C35.5182 138.112 42.5364 121.779 50.2272 109.395C57.918 97.0116 65.8144 89.3251 73.7414 86.5772C81.3775 83.8956 88.6527 85.8844 95.458 92.4495C102.263 99.0145 108.149 109.895 113.036 124.736C118.082 140.096 121.795 159.067 124.07 181.133C126.4 204.858 127.1 228.52 126.165 251.946C125.292 276.1 123.007 300.01 119.32 323.552C115.987 345.402 111.15 366.814 104.845 387.64C98.6969 407.471 91.686 423.798 83.9952 436.181C76.3044 448.564 68.3352 456.315 60.4444 459.104C52.8082 461.786 45.5331 459.797 38.7205 453.238C31.9079 446.68 26.0368 435.787 21.1497 420.945C16.1259 405.566 12.4122 386.595 10.1742 364.571ZM9.53941 365.583C18.9553 456.834 52.3798 489.284 84.1864 438.072C115.993 386.859 134.149 271.376 124.697 180.127C115.245 88.8781 81.8568 56.4253 50.0502 107.638C18.2435 158.85 0.079911 274.34 9.53941 365.583V365.583Z" stroke="white" stroke-opacity="0.24" stroke-width="0.20351"/>
<path d="M1.56572 355.563C0.439943 330.909 1.04106 306.416 3.36455 282.268C5.62731 257.774 9.41332 233.631 14.7007 209.977C19.4047 188.323 25.7382 167.249 33.649 146.929C41.2777 127.78 49.6303 112.404 58.4804 101.233C67.3305 90.0631 76.1315 83.7557 84.6866 82.5284C92.9293 81.3135 100.556 84.8324 107.372 92.9949C114.188 101.157 119.83 113.523 124.154 129.796C128.636 146.63 131.496 166.908 132.656 190.072C133.784 214.724 133.185 239.214 130.864 263.36C128.598 287.854 124.812 311.997 119.528 335.651C114.814 357.318 108.468 378.403 100.543 398.732C92.9146 417.881 84.562 433.257 75.7118 444.427C66.8617 455.598 58.0534 461.911 49.5056 463.132C41.2702 464.341 33.6431 460.822 26.8275 452.659C20.0119 444.497 14.3844 432.119 10.0243 415.82C5.542 398.985 2.68911 378.701 1.52219 355.543L1.56572 355.563ZM0.800458 356.456C5.61237 452.26 39.1471 492.485 75.7724 446.243C112.398 400.002 138.139 284.891 133.327 189.087C128.515 93.2824 94.98 53.0575 58.3547 99.2994C21.7294 145.541 -3.98247 260.685 0.829441 356.489L0.800458 356.456Z" stroke="white" stroke-opacity="0.24" stroke-width="0.20351"/>
<path d="M-6.99391 344.643C-6.81359 319.29 -4.7902 294.209 -0.93997 269.6C2.79307 245.053 8.15996 220.98 15.1257 197.539C21.2805 176.36 29.1952 155.935 38.7915 136.469C47.9579 118.316 57.6804 104.201 67.6892 94.5079C77.698 84.8144 87.3448 80.1133 96.4913 80.5703C105.289 80.9987 113.173 86.175 119.927 95.9552C126.68 105.735 131.955 119.622 135.606 137.246C139.402 155.488 141.278 176.94 141.179 200.98C140.992 226.332 138.968 251.413 135.125 276.022C131.389 300.569 126.022 324.642 119.059 348.084C112.895 369.254 104.97 389.667 95.3642 409.121C86.2051 427.267 76.4826 441.382 66.4738 451.076C56.465 460.769 46.8181 465.47 37.6717 465.013C28.8739 464.585 20.9896 459.408 14.2364 449.628C7.4831 439.848 2.20838 425.961 -1.4435 408.337C-5.23906 390.095 -7.12254 368.649 -7.0156 344.603L-6.99391 344.643ZM-7.87496 345.36C-8.15919 444.982 25.1076 493.169 66.4976 453.07C107.888 412.971 141.725 299.797 142.038 200.209C142.351 100.62 109.121 52.4883 67.6944 92.5463C26.2681 132.604 -7.54735 245.817 -7.85327 345.4L-7.87496 345.36Z" stroke="white" stroke-opacity="0.24" stroke-width="0.20351"/>
<path d="M-15.4967 331.584C-13.8967 305.782 -10.3296 280.38 -4.82645 255.601C0.468534 231.29 7.52388 207.607 16.2858 184.731C24.8527 162.492 34.4586 142.988 44.8406 126.759C55.5946 109.982 66.6718 97.4052 77.8239 89.4794C88.976 81.5536 99.5045 78.6901 109.147 80.9881C118.442 83.2135 126.503 90.1471 133.099 101.584C139.696 113.022 144.509 128.396 147.394 147.265C150.373 166.796 151.142 189.238 149.704 214.005C148.107 239.808 144.54 265.21 139.033 289.988C133.743 314.297 126.69 337.979 117.928 360.851C109.362 383.091 99.7556 402.595 89.3736 418.824C78.6123 435.607 67.5424 448.177 56.383 456.11C45.2236 464.042 34.7097 466.892 25.0595 464.601C15.7724 462.369 7.71107 455.435 1.11477 443.998C-5.48153 432.561 -10.2946 417.186 -13.1803 398.318C-16.1587 378.786 -16.9279 356.344 -15.4967 331.584V331.584ZM-16.4066 332.225C-22.4017 434.6 10.1314 490.984 56.2468 458.157C102.362 425.331 144.604 315.751 150.592 213.383C156.58 111.015 124.054 54.6244 77.9745 87.492C31.8952 120.359 -10.426 229.863 -16.4066 332.225Z" stroke="white" stroke-opacity="0.24" stroke-width="0.20351"/>
<path d="M-23.7332 316.451C-17.5231 265.415 -3.36905 216.634 18.2227 171.852C28.5595 150.726 39.8402 132.609 51.751 118.027C64.0845 102.926 76.5516 92.2794 88.8101 86.3876C101.069 80.4958 112.391 79.7079 122.457 84.0428C132.175 88.2465 140.34 97.0016 146.663 110.126C152.986 123.25 157.236 140.04 159.218 160.041C161.278 180.747 160.824 204.003 157.888 229.184C154.788 255.141 149.572 280.543 142.291 305.14C135.378 328.909 126.562 351.862 115.925 373.789C105.581 394.921 94.3072 413.031 82.3891 427.62C70.0628 442.714 57.5957 453.361 45.33 459.26C33.0643 465.158 21.7566 465.933 11.6904 461.598C1.96521 457.401 -6.19303 448.639 -12.516 435.515C-18.8391 422.391 -23.0961 405.563 -25.0343 385.568C-27.0941 364.862 -26.6404 341.605 -23.7114 316.431L-23.7332 316.451ZM-24.7081 316.915C-36.8257 421.061 -5.59305 485.66 45.1429 461.308C95.8789 436.957 146.811 332.778 158.95 228.672C171.089 124.565 139.828 59.9334 89.099 84.2783C38.3703 108.623 -12.5906 212.827 -24.7154 316.921L-24.7081 316.915Z" stroke="white" stroke-opacity="0.24" stroke-width="0.20351"/>
<path d="M-31.5928 299.203C-26.9106 273.358 -19.9398 248.255 -10.7602 224.184C-2.17661 201.313 8.46635 179.495 21.0469 158.98C33.189 139.345 46.1652 123.006 59.5965 110.415C73.5158 97.3929 87.2631 88.9626 100.649 85.4076C114.035 81.8525 125.997 83.3482 136.421 89.8656C146.482 96.1621 154.614 106.846 160.591 121.633C166.568 136.42 170.088 154.554 171.064 175.543C172.082 197.255 170.276 221.104 165.741 246.408C161.053 272.252 154.083 297.354 144.908 321.427C136.323 344.298 125.68 366.116 113.101 386.631C100.959 406.266 87.9827 422.605 74.5514 435.197C60.6248 448.225 46.8485 456.607 33.499 460.203C20.1495 463.8 8.1504 462.263 -2.2807 455.752C-12.3418 449.455 -20.4659 438.765 -26.4139 423.953C-32.3619 409.14 -35.9181 391.037 -36.8873 370.042C-37.9054 348.331 -36.0988 324.482 -31.5637 299.178L-31.5928 299.203ZM-32.6252 299.441C-51.3851 404.079 -21.9252 476.957 33.174 462.228C88.2731 447.498 148.159 350.709 166.919 246.071C185.679 141.433 156.219 68.5548 101.119 83.2842C46.0203 98.0136 -13.8653 194.803 -32.6324 299.448L-32.6252 299.441Z" stroke="white" stroke-opacity="0.24" stroke-width="0.20351"/>
<path d="M-38.9517 279.852C-32.6117 254.462 -23.8031 230.045 -12.6462 206.934C-2.3403 185.263 10.1785 164.941 24.7291 146.259C38.7117 128.537 53.3823 114.371 68.3332 104.165C83.8517 93.6489 98.98 87.7846 113.267 86.8092C127.554 85.8338 140.252 89.8517 150.895 98.6881C161.161 107.17 169.207 119.871 174.707 136.305C180.208 152.739 182.94 172.079 182.759 193.897C182.59 216.449 179.344 240.617 173.109 265.724C166.769 291.114 157.961 315.531 146.804 338.642C136.483 360.299 123.952 380.608 109.392 399.276C95.4098 416.998 80.7392 431.163 65.781 441.376C50.2986 451.992 35.2429 457.865 20.9122 458.806C6.58156 459.747 -6.06499 455.757 -16.7152 446.927C-26.974 438.439 -35.0274 425.744 -40.5206 409.304C-46.0139 392.864 -48.7166 373.498 -48.572 351.712C-48.3964 329.153 -45.1503 304.985 -38.9154 279.878L-38.9517 279.852ZM-40.1146 279.985C-65.9274 383.782 -38.872 464.737 20.3692 460.832C79.6105 456.928 148.51 369.518 174.308 265.676C200.107 161.833 173.051 80.8778 113.81 84.7827C54.569 88.6876 -14.2869 176.058 -40.1217 279.933L-40.1146 279.985Z" stroke="white" stroke-opacity="0.24" stroke-width="0.20351"/>
<path d="M-45.6459 258.452C-37.5904 233.831 -26.8609 210.47 -13.638 188.762C-1.54849 168.676 12.8985 150.311 29.4327 134.009C45.2473 118.616 61.5896 107.038 78.0154 99.5928C95.0377 91.8995 111.328 88.9548 126.574 90.8736C141.82 92.7924 154.954 99.4639 165.786 110.762C176.213 121.629 183.978 136.287 188.871 154.322C193.764 172.356 195.534 192.836 194.131 215.22C192.682 238.404 187.859 262.602 179.868 287.125C171.812 311.746 161.083 335.106 147.86 356.814C135.77 376.9 121.323 395.266 104.789 411.568C88.9745 426.96 72.625 438.545 56.2065 445.984C39.1842 453.677 22.8937 456.622 7.65509 454.696C-7.58353 452.771 -20.8334 446.129 -31.6007 434.846C-42.0276 423.979 -49.7925 409.322 -54.693 391.293C-59.5935 373.265 -61.3487 352.772 -59.9456 330.389C-58.4968 307.205 -53.6812 283.012 -45.6459 258.452V258.452ZM-46.9024 258.288C-80.1133 359.883 -56.0287 448.757 6.95218 456.747C69.933 464.737 147.87 388.907 181.052 287.309C214.233 185.71 190.178 96.8834 127.233 88.8616C64.2888 80.8398 -13.6843 156.701 -46.8661 258.3L-46.9024 258.288Z" stroke="white" stroke-opacity="0.24" stroke-width="0.20351"/>
<path d="M-51.5497 235.071C-41.7266 211.571 -29.017 189.691 -13.6902 169.895C0.21574 151.727 16.5942 135.742 35.0434 122.333C52.6671 109.728 70.7017 101.143 88.4635 96.8146C106.901 92.3432 124.382 92.6584 140.419 97.7801C156.15 102.678 170.403 112.711 180.829 126.223C191.264 139.536 198.66 156.199 202.823 175.739C206.986 195.279 207.692 216.724 204.937 239.482C202.092 263.033 195.62 286.961 185.727 310.588C175.903 334.087 163.193 355.967 147.868 375.764C133.962 393.932 117.583 409.917 99.1342 423.326C81.5032 435.937 63.4759 444.516 45.7141 448.844C27.2689 453.322 9.79547 453 -6.24124 447.879C-21.9706 442.978 -36.2199 432.941 -46.6369 419.423C-57.0719 406.11 -64.4754 389.439 -68.6017 369.882C-72.7281 350.324 -73.4709 328.896 -70.7226 306.145C-67.5379 281.325 -61.0921 257.43 -51.5497 235.071V235.071ZM-52.8637 234.622C-93.788 332.394 -73.2834 428.731 -7.02381 449.824C59.2358 470.918 146.103 408.749 187.049 310.987C227.995 213.224 207.49 116.888 141.209 95.7843C74.9275 74.6806 -11.9103 136.882 -52.8637 234.622Z" stroke="white" stroke-opacity="0.24" stroke-width="0.20351"/>
<path d="M-56.4393 209.788C-44.8101 187.747 -30.0747 167.784 -12.6372 150.447C3.1507 134.564 21.4509 121.424 41.6758 111.451C61.064 102.067 80.5863 96.8889 99.7121 96.0762C119.506 95.2295 138.002 99.1196 154.677 107.623C171.315 116.096 185.662 129.156 195.877 145.126C206.182 160.949 213.093 179.616 216.373 200.561C219.653 221.507 219.216 243.726 215.015 266.56C210.346 291.108 202.139 314.424 190.644 335.801C179.015 357.843 164.28 377.805 146.842 395.142C131.052 411.027 112.749 424.169 92.5221 434.145C73.1339 443.528 53.6116 448.707 34.4931 449.513C14.6769 450.379 -3.82618 446.495 -20.5006 437.992C-37.1393 429.519 -51.4848 416.456 -61.6935 400.483C-71.9983 384.659 -78.9098 365.993 -82.1969 345.054C-85.484 324.114 -85.0331 301.883 -80.8387 279.055C-76.1714 254.506 -67.9649 231.19 -56.4684 209.814L-56.4393 209.788ZM-57.8398 209.123C-106.72 301.33 -90.448 404.637 -21.4645 439.82C47.5189 475.003 143.085 428.758 191.972 336.501C240.86 244.244 224.617 140.955 155.633 105.772C86.6499 70.5892 -8.91572 116.834 -57.8107 209.098L-57.8398 209.123Z" stroke="white" stroke-opacity="0.24" stroke-width="0.20351"/>
<path d="M-60.211 182.792C-46.7044 162.556 -29.9123 144.964 -10.4336 130.645C7.3554 117.446 27.5518 107.625 49.3317 101.581C70.3958 95.8772 91.383 94.5347 111.683 97.5948C131.917 100.454 151.724 108.411 169.262 120.728C186.488 132.921 200.801 149.118 210.786 167.716C220.808 186.096 227.031 206.712 229.363 228.931C231.695 251.15 229.935 273.922 224.179 296.562C217.979 320.546 207.937 342.918 194.425 362.85C180.918 383.086 164.126 400.677 144.647 414.997C126.858 428.195 106.662 438.017 84.8821 444.06C63.818 449.764 42.8308 451.107 22.5309 448.047C1.50481 444.838 -17.8745 437.067 -35.0842 424.887C-52.3072 412.69 -66.6195 396.495 -76.6081 377.899C-86.6228 359.512 -92.8534 338.902 -95.1854 316.684C-97.5173 294.465 -95.7208 271.72 -89.9648 249.079C-83.7668 225.094 -73.7247 202.722 -60.211 182.792V182.792ZM-61.618 181.797C-118.66 266.735 -107.273 376.331 -36.1858 426.603C34.9013 476.874 138.76 448.75 195.803 363.812C252.845 278.874 241.458 169.277 170.342 118.973C99.2256 68.6686 -4.57552 96.8586 -61.618 181.797V181.797Z" stroke="white" stroke-opacity="0.24" stroke-width="0.20351"/>
<path d="M-62.6709 154.245C-47.218 136.176 -28.3681 121.449 -7.00189 110.753C12.9045 100.701 34.9081 94.681 57.9214 92.9924C79.823 91.3213 102.37 94.2485 124.199 101.597C145.975 108.954 166.396 121.097 183.906 137.1C201.416 153.104 215.552 172.544 225.234 193.939C234.929 215.389 240.443 238.101 241.443 260.703C242.584 284.445 239.422 307.674 232.115 329.238C216.343 375.784 184.143 413.183 141.166 434.874C121.262 444.925 99.2609 450.943 76.2502 452.629C54.3486 454.3 31.802 451.373 9.97229 444.024C-11.805 436.672 -32.2296 424.533 -49.7432 408.534C-67.2569 392.534 -81.3969 373.095 -91.0846 351.701C-100.77 330.236 -106.269 307.51 -107.249 284.899C-108.39 261.157 -105.229 237.928 -97.9212 216.364C-90.1626 193.232 -78.2194 172.192 -62.6491 154.226L-62.6709 154.245ZM-64.0843 152.92C-129.298 228.656 -123.469 343.777 -51.0291 410.002C21.4111 476.228 133.056 468.439 198.292 392.669C263.528 316.9 257.677 201.812 185.237 135.587C112.797 69.3612 1.12984 77.1696 -64.1061 152.939L-64.0843 152.92Z" stroke="white" stroke-opacity="0.24" stroke-width="0.20351"/>
<path d="M-63.6825 124.393C-33.3365 97.6986 6.49744 83.667 49.0717 84.6756C91.646 85.6841 134.343 101.671 169.93 129.927C205.517 158.184 231.806 196.973 244.344 239.724C256.882 282.475 254.898 326.56 238.728 364.511C219.867 407.761 183.904 439.564 138.682 452.981C93.4611 466.398 42.6514 460.342 -2.66372 436.132C-47.9789 411.923 -84.1225 371.525 -103.211 323.75C-122.299 275.976 -122.783 224.701 -104.557 181.111C-95.1863 159.126 -81.2843 139.835 -63.6825 124.393V124.393ZM-65.1313 122.749C-91.4184 145.906 -109.361 177.345 -116.691 213.09C-124.021 248.835 -120.409 287.281 -106.311 323.565C-92.2131 359.849 -68.2629 392.342 -37.4892 416.935C-6.71538 441.528 29.4999 457.117 66.577 461.73C103.654 466.343 139.928 459.773 170.811 442.851C201.694 425.929 225.799 399.415 240.079 366.662C254.359 333.908 258.171 296.387 251.035 258.842C243.898 221.297 226.132 185.415 199.984 155.734C182.623 136.026 161.993 119.54 139.274 107.216C116.555 94.893 92.1905 86.9738 67.5722 83.9108C42.954 80.8479 18.5639 82.7012 -4.20542 89.365C-26.9747 96.0288 -47.6774 107.373 -65.1313 122.749V122.749Z" stroke="white" stroke-opacity="0.24" stroke-width="0.20351"/>
</svg>
