<svg width="266" height="206" viewBox="0 0 266 206" fill="none" xmlns="http://www.w3.org/2000/svg">
<path d="M111.929 91.7286C113.051 80.9262 115.748 68.5157 119.937 54.8416C124.316 40.7538 129.541 27.0223 135.574 13.7423C141.852 -0.195866 148.892 -13.6768 156.655 -26.6226C163.926 -38.8956 172.034 -50.5082 180.905 -61.3555C189.038 -71.2154 196.787 -78.6681 203.835 -83.5072C210.627 -88.181 216.511 -90.2177 221.319 -89.5846C226.127 -88.9515 229.599 -85.6749 231.663 -79.8041C233.792 -73.7829 234.307 -65.2048 233.184 -54.4023C232.062 -43.5998 229.365 -31.139 225.176 -17.5153C220.797 -3.42565 215.57 10.3062 209.53 23.5842C203.265 37.527 196.233 51.0114 188.476 63.9588C181.202 76.2294 173.094 87.8418 164.226 98.6916C156.04 108.552 148.317 116.005 141.278 120.844C134.477 125.517 128.593 127.554 123.794 126.921C118.995 126.288 115.514 123.011 113.45 117.14C111.312 111.119 110.806 102.541 111.929 91.7387L111.929 91.7286ZM111.253 92.5461C106.572 137.232 130.281 140.382 164.133 99.5708C197.985 58.7594 229.205 -10.5242 233.851 -55.2095C238.497 -99.8948 214.833 -103.046 181.025 -62.2351C147.218 -21.4243 115.952 47.8599 111.298 92.5454L111.253 92.5461Z" stroke="white" stroke-opacity="0.24" stroke-width="0.187339"/>
<path d="M105.944 90.5996C108.158 78.7312 112.064 65.2834 117.562 50.7419C123.238 35.8381 129.747 21.3599 137.052 7.39455C144.54 -7.04797 152.788 -20.9698 161.749 -34.2966C169.988 -46.7136 179.072 -58.3849 188.918 -69.2051C197.911 -78.9166 206.203 -86.0144 213.563 -90.2932C220.648 -94.4367 226.614 -95.7886 231.22 -94.3252C235.827 -92.8617 238.884 -88.6505 240.284 -81.8111C241.731 -74.7707 241.342 -65.1194 239.128 -53.2612C236.913 -41.4029 233.008 -27.9449 227.51 -13.4034C221.835 1.50237 215.322 15.9809 208.011 29.944C200.526 44.3863 192.281 58.3081 183.323 71.6351C175.064 84.0521 165.963 95.7235 156.1 106.544C147.107 116.256 138.816 123.354 131.464 127.632C124.379 131.776 118.413 133.128 113.807 131.664C109.201 130.201 106.143 125.99 104.743 119.15C103.296 112.11 103.676 102.459 105.9 90.6003L105.944 90.5996ZM105.161 91.3985C95.9982 140.461 118.724 147.692 155.918 107.516C193.113 67.3395 230.703 -4.98712 239.866 -54.0594C249.029 -103.132 226.303 -110.353 189.1 -70.1764C151.896 -30.0001 114.324 42.3262 105.161 91.3985Z" stroke="white" stroke-opacity="0.24" stroke-width="0.187339"/>
<path d="M100.227 88.3855C104.261 73.6974 109.426 59.44 115.662 45.7758C122.697 30.1666 130.556 15.0511 139.197 0.510583C147.91 -14.3039 157.381 -28.5295 167.563 -42.094C176.787 -54.5082 186.862 -66.0838 197.693 -76.7146C207.459 -86.1351 216.268 -92.7364 223.87 -96.3631C231.224 -99.8649 237.149 -100.439 241.491 -98.084C245.834 -95.7286 248.361 -90.561 249.017 -82.7216C249.694 -74.6 248.319 -63.9551 244.932 -51.0801C240.9 -36.3906 235.735 -22.1328 229.496 -8.47045C222.496 7.13087 214.669 22.2393 206.059 36.7731C197.344 51.5853 187.873 65.8107 177.694 79.3777C168.469 91.7919 158.395 103.367 147.563 113.998C137.797 123.419 128.989 130.02 121.377 133.647C114.032 137.149 108.108 137.723 103.765 135.368C99.4222 133.012 96.8953 127.845 96.2399 120.005C95.5623 111.884 96.9373 101.239 100.324 88.3638L100.227 88.3855ZM99.5231 89.1327C85.5093 142.385 106.899 153.985 147.275 115.062C187.652 76.1389 231.675 1.42421 245.689 -51.8181C259.703 -105.06 238.314 -116.67 197.937 -77.7474C157.56 -38.8242 113.43 35.9123 99.443 89.1541L99.5231 89.1327Z" stroke="white" stroke-opacity="0.24" stroke-width="0.187339"/>
<path d="M94.9132 85.0264C100.309 69.4345 106.818 54.3677 114.377 39.9744C131.209 7.62217 151.2 -22.4893 173.978 -49.7984C184.126 -62.069 195.136 -73.3942 206.899 -83.6643C217.387 -92.6217 226.651 -98.6144 234.436 -101.457C241.962 -104.205 247.801 -103.92 251.774 -100.611C255.747 -97.3015 257.682 -91.1463 257.503 -82.3054C257.33 -73.1518 254.889 -61.5019 250.256 -47.6899C244.861 -32.098 238.351 -17.0312 230.792 -2.63791C222.413 13.5326 213.213 29.1414 203.241 44.1111C193.298 59.1365 182.598 73.5015 171.191 87.1349C161.04 99.4058 150.028 110.731 138.261 121.001C127.782 129.958 118.518 135.951 110.725 138.794C103.207 141.541 97.3592 141.257 93.3951 137.947C89.4311 134.638 87.4878 128.483 87.6571 119.642C87.8395 110.488 90.2804 98.8385 94.9132 85.0264V85.0264ZM94.0308 85.7562C74.8669 142.901 94.4867 159.189 137.859 122.137C181.23 85.0854 231.921 8.71551 251.085 -48.4188C270.249 -105.553 250.629 -121.852 207.257 -84.7998C163.885 -47.7481 113.195 28.6117 94.0308 85.7562V85.7562Z" stroke="white" stroke-opacity="0.24" stroke-width="0.187339"/>
<path d="M90.0342 80.4392C96.8337 64.0653 104.731 48.3053 113.657 33.296C123.416 16.7061 133.993 0.75085 145.339 -14.4945C156.482 -29.5689 168.392 -43.8987 181.009 -57.4119C193.477 -70.7176 205.444 -81.6548 216.585 -89.9966C227.726 -98.3384 237.368 -103.56 245.246 -105.506C252.858 -107.387 258.506 -106.162 262.038 -101.857C265.57 -97.5521 266.814 -90.3774 265.731 -80.5542C264.599 -70.3771 261.02 -57.7817 255.069 -43.0618C248.277 -26.6839 240.379 -10.9233 231.446 4.08144C221.694 20.6735 211.12 36.6289 199.774 51.8718C188.63 66.9462 176.72 81.276 164.104 94.7893C151.636 108.095 139.668 119.032 128.527 127.374C117.387 135.716 107.744 140.937 99.866 142.883C92.2549 144.765 86.6069 143.539 83.0744 139.234C79.542 134.929 78.2981 127.755 79.3817 117.931C80.5046 107.755 84.0927 95.159 90.0342 80.4392V80.4392ZM89.1512 81.1286C64.5636 141.806 81.9889 163.031 128.063 128.541C174.136 94.0515 231.4 16.8854 255.987 -43.7921C280.575 -104.47 263.15 -125.695 217.076 -91.2047C171.003 -56.7149 113.712 20.4515 89.1244 81.129L89.1512 81.1286Z" stroke="white" stroke-opacity="0.24" stroke-width="0.187339"/>
<path d="M85.8175 74.5812C94.0474 57.5474 103.37 41.2197 113.712 25.7285C124.841 8.89446 136.793 -7.22282 149.515 -22.5484C161.816 -37.4967 174.891 -51.6093 188.67 -64.8127C202.191 -77.6602 214.99 -88.0047 226.697 -95.558C238.403 -103.111 248.355 -107.379 256.222 -108.326C263.821 -109.229 269.199 -106.97 272.193 -101.618C275.187 -96.2655 275.651 -88.0801 273.581 -77.3035C271.428 -66.1726 266.629 -52.6607 259.322 -37.2442C251.089 -20.2126 241.766 -3.88513 231.427 11.6086C220.294 28.4378 208.341 44.5548 195.625 59.8854C183.314 74.8374 170.227 88.9503 156.434 102.15C142.922 114.998 130.123 125.342 118.408 132.896C106.692 140.449 96.7674 144.737 88.8918 145.684C81.2926 146.586 75.9148 144.327 72.9204 138.975C69.9261 133.623 69.4531 125.438 71.5319 114.661C73.6858 103.53 78.4841 90.0183 85.791 74.6018L85.8175 74.5812ZM84.8265 75.2218C54.6302 139.011 69.3276 165.353 117.81 134.136C166.292 102.918 230.046 25.916 260.278 -37.8641C290.51 -101.644 275.741 -128.015 227.303 -96.7982C178.865 -65.5817 115.067 11.4215 84.8262 75.2016L84.8265 75.2218Z" stroke="white" stroke-opacity="0.24" stroke-width="0.187339"/>
<path d="M82.2692 67.3711C91.944 49.8412 102.711 33.113 114.488 17.3125C126.971 0.415611 140.285 -15.6754 154.367 -30.8852C167.789 -45.4995 181.994 -59.1695 196.902 -71.8186C211.406 -84.0253 224.933 -93.5435 237.128 -100.115C249.323 -106.688 259.433 -109.929 267.201 -109.744C274.701 -109.556 279.693 -106.201 282.061 -99.7599C284.428 -93.3186 284.032 -84.1414 280.885 -72.4506C277.639 -60.2941 271.565 -46.0768 262.847 -30.0334C253.174 -12.5041 242.411 4.22399 230.637 20.0251C218.159 36.9242 204.848 53.0154 190.767 68.2226C177.344 82.8395 163.135 96.5097 148.223 109.156C133.728 121.363 120.192 130.881 108.006 137.453C95.8198 144.025 85.7006 147.266 77.9329 147.082C70.4332 146.893 65.432 143.539 63.0733 137.097C60.7146 130.656 61.1022 121.479 64.2483 109.788C67.4954 97.682 73.5688 83.4142 82.287 67.3708L82.2692 67.3711ZM81.2855 67.9107C45.2304 134.241 56.8645 165.966 107.293 138.765C157.722 111.564 227.793 35.7571 263.821 -30.5728C299.85 -96.9028 288.243 -128.628 237.814 -101.427C187.385 -74.2264 117.323 1.58058 81.2498 67.9112L81.2855 67.9107Z" stroke="white" stroke-opacity="0.24" stroke-width="0.187339"/>
<path d="M79.5728 58.7952C90.699 40.9345 102.922 23.9796 116.151 8.0548C129.946 -8.69784 144.58 -24.5439 159.981 -39.4059C174.444 -53.4849 189.698 -66.4961 205.647 -78.3591C221.031 -89.6913 235.199 -98.1699 247.751 -103.587C260.304 -109.004 270.496 -110.996 278.04 -109.597C285.326 -108.225 289.844 -103.723 291.478 -96.1507C293.113 -88.5783 291.748 -78.428 287.471 -65.8926C283.049 -52.9111 275.663 -37.9575 265.514 -21.4585C254.402 -3.60239 242.197 13.352 228.989 29.2811C215.192 46.0313 200.558 61.8772 185.159 76.7418C170.696 90.8208 155.442 103.832 139.493 115.695C124.109 127.027 109.941 135.506 97.3886 140.923C84.8363 146.34 74.6444 148.331 67.0995 146.933C59.8141 145.561 55.2869 141.059 53.6526 133.487C52.0184 125.914 53.383 115.764 57.66 103.229C62.0822 90.2471 69.4677 75.2935 79.6175 58.7945L79.5728 58.7952ZM78.5877 59.2339C36.6017 127.471 44.6556 164.678 96.5692 142.277C148.483 119.876 224.62 46.3681 266.615 -21.899C308.609 -90.1661 300.547 -127.343 248.624 -104.942C196.702 -82.5412 120.537 -9.03251 78.543 59.2346L78.5877 59.2339Z" stroke="white" stroke-opacity="0.24" stroke-width="0.187339"/>
<path d="M77.85 48.8638C90.405 30.865 104.063 13.885 118.725 -1.95204C133.776 -18.3384 149.672 -33.7067 166.33 -47.977C181.745 -61.3146 197.954 -73.4438 214.842 -84.2796C230.994 -94.4834 245.672 -101.719 258.459 -105.788C271.247 -109.856 281.369 -110.515 288.56 -107.698C295.508 -105.009 299.411 -99.2673 300.249 -90.6033C301.087 -81.9393 298.701 -70.8049 293.247 -57.4949C287.595 -43.7279 278.85 -28.2289 267.249 -11.4254C254.694 6.57337 241.035 23.5535 226.374 39.3905C211.321 55.7745 195.425 71.1426 178.769 85.4154C163.371 98.7154 147.183 110.81 130.318 121.616C114.157 131.82 99.4877 139.055 86.7005 143.124C73.9132 147.193 63.7011 147.853 56.5107 145.087C49.5627 142.398 45.6599 136.656 44.8132 127.992C43.9666 119.328 46.3706 108.193 51.8242 94.8833C57.5033 81.1159 66.2476 65.6169 77.85 48.8638ZM76.8006 49.1925C28.8292 118.691 32.8206 161.388 85.7037 144.562C138.587 127.736 220.345 57.7639 268.289 -11.754C316.233 -81.2718 312.269 -123.95 259.386 -107.123C206.503 -90.2971 124.736 -20.3252 76.8006 49.1925V49.1925Z" stroke="white" stroke-opacity="0.24" stroke-width="0.187339"/>
<path d="M77.2118 37.4122C91.1649 19.4838 106.231 2.70027 122.295 -12.8119C138.525 -28.6027 155.611 -43.2372 173.454 -56.6309C189.695 -68.9746 206.728 -79.9375 224.415 -89.4294C241.204 -98.2708 256.244 -104.039 269.117 -106.565C281.99 -109.091 291.921 -108.244 298.643 -103.987C305.139 -99.9093 308.373 -92.886 308.263 -83.0977C308.152 -73.3095 304.708 -61.2811 298.004 -47.3064C291.076 -32.844 280.953 -16.9407 267.914 -0.0345742C253.964 17.8938 238.901 34.6773 222.839 50.1894C206.608 65.9779 189.522 80.6123 171.68 94.0084C155.426 106.355 138.377 117.318 120.676 126.808C103.886 135.649 88.8464 141.417 75.9732 143.943C63.0999 146.47 53.1597 145.622 46.447 141.366C39.9604 137.287 36.7261 130.264 36.8364 120.476C36.9466 110.688 40.4092 98.6589 47.1031 84.644C54.0314 70.1816 64.1635 54.2782 77.1933 37.3721L77.2118 37.4122ZM76.1421 37.5798C22.2263 107.511 21.6461 155.717 74.9297 145.251C128.213 134.784 215.057 69.6085 268.973 -0.323083C322.889 -70.2547 323.469 -118.46 270.185 -107.994C216.902 -97.5278 130.059 -32.3114 76.1427 37.6202L76.1421 37.5798Z" stroke="white" stroke-opacity="0.24" stroke-width="0.187339"/>
<path d="M77.7493 24.6509C93.0346 7.01394 109.447 -9.33077 126.856 -24.2522C144.146 -39.2011 162.297 -52.841 181.188 -65.0826C198.159 -76.2262 215.911 -85.7889 234.267 -93.6759C251.537 -100.9 266.781 -104.966 279.583 -105.766C292.384 -106.566 301.947 -104.088 308.075 -98.2997C313.977 -92.7395 316.4 -84.4023 315.279 -73.5191C314.158 -62.636 309.546 -49.7626 301.564 -35.2438C293.313 -20.2063 281.8 -4.07 267.356 12.6961C252.067 30.3284 235.654 46.6728 218.249 61.5991C200.957 76.5459 182.808 90.1856 163.917 102.43C146.945 113.561 129.193 123.11 110.838 130.983C93.577 138.207 78.3324 142.273 65.5312 143.073C52.7299 143.873 43.1671 141.395 37.0386 135.606C31.1371 130.046 28.7138 121.709 29.835 110.826C30.9561 99.9425 35.5675 87.0691 43.5494 72.5503C51.8003 57.5128 63.3049 41.3766 77.7576 24.6104L77.7493 24.6509ZM76.7035 24.6264C16.9381 94.1829 11.4097 147.801 64.3553 144.483C117.301 141.165 208.653 82.1859 268.419 12.6698C328.185 -56.8463 333.705 -110.403 280.759 -107.136C227.813 -103.869 136.452 -44.849 76.6951 24.6669L76.7035 24.6264Z" stroke="white" stroke-opacity="0.24" stroke-width="0.187339"/>
<path d="M79.6065 10.4267C96.1541 -6.67593 113.839 -22.322 132.507 -36.3749C150.749 -50.2241 169.848 -62.5818 189.659 -73.3538C208.952 -83.7971 227.337 -91.7042 244.308 -96.8557C261.865 -102.167 277.138 -104.347 289.683 -103.226C302.228 -102.105 311.309 -97.8145 316.684 -90.4403C321.858 -83.3254 323.355 -73.6524 321.133 -61.7032C318.911 -49.754 313.087 -36.1155 303.825 -21.1838C294.231 -5.73246 281.351 10.4348 265.536 26.909C248.99 44.014 231.305 59.6602 212.635 73.7106C194.397 87.5617 175.301 99.9195 155.493 110.689C136.199 121.133 117.814 129.04 100.844 134.191C83.2768 139.503 68.0125 141.683 55.4591 140.562C42.9056 139.441 33.8423 135.15 28.4582 127.776C23.2925 120.661 21.7961 110.988 24.018 99.0388C26.2398 87.0896 32.0637 73.4511 41.326 58.5194C50.9199 43.068 63.8001 26.9008 79.6065 10.4267V10.4267ZM78.5864 10.3313C13.178 78.3997 2.2349 137.316 54.1393 141.914C106.044 146.512 201.129 95.0731 266.529 27.0048C331.928 -41.0634 342.88 -99.9797 290.977 -104.527C239.073 -109.075 143.977 -57.7368 78.5864 10.3313Z" stroke="white" stroke-opacity="0.24" stroke-width="0.187339"/>
<path d="M82.8908 -5.08963C117.753 -37.0966 156.827 -62.776 198.715 -81.2094C218.582 -89.8151 237.31 -95.75 254.365 -98.8345C272.027 -102.029 287.119 -102.027 299.221 -98.8207C311.324 -95.6149 319.72 -89.3964 324.173 -80.3435C328.461 -71.5908 328.942 -60.5806 325.52 -47.6143C322.098 -34.648 315.033 -20.3551 304.462 -5.17136C293.523 10.5527 279.3 26.5587 262.188 42.4271C244.499 58.7415 225.659 73.4021 205.856 86.2643C186.806 98.7669 166.911 109.561 146.355 118.547C126.479 127.153 107.76 133.088 90.696 136.172C73.0435 139.367 57.9515 139.364 45.8398 136.158C33.7282 132.953 25.3505 126.734 20.8969 117.681C16.5999 108.929 16.1286 97.9182 19.5501 84.9519C22.9717 71.9856 30.0541 57.6621 40.6533 42.5083C51.5923 26.7842 65.8153 10.7782 82.9176 -5.09003L82.8908 -5.08963ZM81.9307 -5.34744C11.1779 60.3001 -5.587 124.188 44.4839 137.481C94.5548 150.773 192.493 108.311 263.238 42.7037C333.983 -22.9033 350.747 -86.8316 300.685 -100.124C250.623 -113.417 152.648 -70.9541 81.9218 -5.3473L81.9307 -5.34744Z" stroke="white" stroke-opacity="0.24" stroke-width="0.187339"/>
<path d="M87.7021 -21.8604C106.433 -37.1506 126.322 -50.5521 147.139 -61.9109C166.822 -72.7866 187.317 -81.6935 208.388 -88.5299C228.627 -95.0124 247.478 -98.6892 264.408 -99.4714C281.936 -100.263 296.599 -97.9433 308.093 -92.4278C319.588 -86.9123 327.066 -78.7126 330.465 -67.9183C333.742 -57.4956 333.045 -45.1559 328.387 -31.2325C323.729 -17.3091 315.35 -2.51188 303.483 12.7622C291.214 28.567 275.69 44.1792 257.386 59.1778C238.652 74.4638 218.764 87.8651 197.949 99.2283C178.265 110.102 157.771 119.009 136.699 125.847C116.461 132.33 97.6096 136.007 80.6799 136.789C63.1427 137.58 48.4883 135.21 36.9946 129.745C25.5009 124.28 18.0215 116.03 14.6138 105.236C11.3367 94.8132 12.0425 82.4734 16.7363 68.5494C21.43 54.6255 29.765 39.8289 41.6402 24.5547C53.9093 8.74994 69.4339 -6.86225 87.7378 -21.8609L87.7021 -21.8604ZM86.8375 -22.3113C11.1418 39.7087 -11.8148 108.332 35.5567 130.968C82.9283 153.604 182.716 121.667 258.412 59.6465C334.107 -2.37348 357.064 -70.9966 309.692 -93.6326C262.321 -116.268 162.533 -84.3313 86.8285 -22.3112L86.8375 -22.3113Z" stroke="white" stroke-opacity="0.24" stroke-width="0.187339"/>
<path d="M94.1203 -39.8062C113.739 -53.7855 134.504 -65.6085 156.131 -75.1135C176.302 -84.1185 197.215 -90.8575 218.57 -95.233C238.953 -99.2761 257.691 -100.419 274.257 -98.6226C291.407 -96.7043 305.502 -91.7631 316.085 -83.9031C326.668 -76.0432 333.152 -65.639 335.318 -53.0906C337.432 -41.0157 335.469 -27.3149 329.493 -12.5239C323.517 2.26699 313.865 17.4367 300.692 32.5995C287.09 48.2833 270.367 63.2579 250.991 77.1025C231.373 91.0819 210.608 102.905 188.98 112.41C168.808 121.397 147.894 128.119 126.541 132.479C106.158 136.522 87.4202 137.665 70.8444 135.869C53.6606 134.042 39.6112 129.15 29.0185 121.24C18.4258 113.33 11.9599 102.976 9.78532 90.4275C7.6805 78.3524 9.63444 64.6518 15.6195 49.8607C21.6047 35.0696 31.2922 19.8993 44.42 4.73727C58.0313 -10.9467 74.754 -25.9213 94.1299 -39.7659L94.1203 -39.8062ZM93.2266 -40.408C13.0973 16.8063 -16.3717 89.645 27.4268 122.334C71.2252 155.022 171.713 135.04 251.859 77.7855C332.006 20.5305 361.475 -52.3081 317.677 -84.9968C273.878 -117.686 173.444 -97.7044 93.2528 -40.4488L93.2266 -40.408Z" stroke="white" stroke-opacity="0.24" stroke-width="0.187339"/>
<path d="M102.233 -58.7864C122.592 -71.2022 144.07 -81.1373 166.305 -88.4246C186.776 -95.2541 207.869 -99.4702 229.189 -100.994C249.461 -102.311 267.822 -100.643 283.77 -96.0332C300.284 -91.2398 313.447 -83.5603 322.97 -73.1014C332.494 -62.6425 337.697 -50.1202 338.524 -35.7354C339.324 -21.8951 335.994 -6.99306 328.636 8.55544C321.277 24.1039 310.271 39.496 295.905 54.3238C281.028 69.684 263.184 83.7374 242.928 96.1224C222.568 108.538 201.091 118.473 178.856 125.761C158.385 132.59 137.292 136.806 115.972 138.33C95.6996 139.647 77.3298 137.98 61.3903 133.369C44.8762 128.576 31.7136 120.896 22.1991 110.437C12.6846 99.9783 7.38223 87.407 6.59228 73.0721C5.79198 59.2318 9.12158 44.3297 16.4712 28.7814C23.8209 13.233 34.8453 -2.15935 49.2113 -16.9871C64.0875 -32.3473 81.9233 -46.4006 102.233 -58.7864V-58.7864ZM101.451 -59.6522C17.4603 -8.40243 -18.8227 68.2023 20.481 111.452C59.7848 154.702 159.674 148.229 243.646 96.959C327.619 45.6893 363.894 -30.8649 324.635 -74.1155C285.376 -117.366 185.442 -110.892 101.469 -59.6222L101.451 -59.6522Z" stroke="white" stroke-opacity="0.24" stroke-width="0.187339"/>
<path d="M112.08 -78.6811C133.006 -89.2556 154.984 -96.9702 177.549 -101.662C198.144 -106.063 219.166 -107.457 240.096 -105.811C259.968 -104.096 277.724 -99.3213 292.743 -91.7307C308.322 -83.8357 320.368 -73.163 328.53 -59.9895C336.611 -47.1552 340.589 -31.6113 339.807 -15.9197C339.15 -0.362228 334.364 15.7222 325.594 31.8874C316.824 48.0527 304.496 63.4851 288.96 77.7656C272.887 92.5488 254.05 105.427 232.999 116.048C212.072 126.621 190.094 134.336 167.53 139.029C146.934 143.429 125.913 144.824 104.983 143.178C85.1019 141.463 67.355 136.688 52.3352 129.098C36.7479 121.203 24.7103 110.53 16.5484 97.3566C8.46941 84.5217 4.4979 68.9763 5.2895 53.2865C5.94636 37.729 10.7322 21.6345 19.538 5.47878C28.3438 -10.6769 40.6363 -26.1189 56.1633 -40.3993C73.2331 -55.8672 92.0317 -68.7372 112.08 -78.6811V-78.6811ZM111.429 -79.781C24.3246 -35.8187 -18.9258 43.8683 14.8375 98.2503C48.6008 152.632 146.572 161.059 233.685 117.117C320.798 73.1749 364.049 -6.51207 330.276 -60.914C296.504 -115.316 198.533 -123.703 111.429 -79.781Z" stroke="white" stroke-opacity="0.24" stroke-width="0.187339"/>
<path d="M123.775 -99.2994C145.093 -107.773 167.343 -112.934 189.913 -114.642C210.461 -116.319 231.125 -114.573 251.245 -109.461C270.425 -104.436 287.185 -96.3876 301.058 -85.5207C315.418 -74.2778 326.038 -60.496 332.624 -44.5745C339.203 -28.6952 341.436 -10.976 339.036 6.3089C336.788 23.5453 330.464 40.7428 320.236 57.364C310.007 73.9853 296.417 89.2755 279.823 102.745C261.877 117.135 242.192 128.547 221.365 136.636C200.046 145.11 177.797 150.271 155.226 151.979C134.676 153.655 114.008 151.91 93.8855 146.798C74.7051 141.773 57.9448 133.724 44.0815 122.857C29.6942 111.615 19.0658 97.8332 12.4794 81.9117C5.90037 66.0324 3.67035 48.3121 6.076 31.0282C8.32463 13.7918 14.6484 -3.40566 24.8679 -20.0268C35.0874 -36.6479 48.6957 -51.9383 65.2805 -65.4076C83.2258 -79.7991 102.911 -91.2117 123.739 -99.2988L123.775 -99.2994ZM123.192 -100.602C33.8474 -65.2926 -16.5335 16.7428 10.712 82.6146C37.9575 148.486 132.496 173.26 221.876 137.92C311.255 102.579 361.646 20.5742 334.4 -45.2977C307.155 -111.17 212.616 -135.943 123.227 -100.603L123.192 -100.602Z" stroke="white" stroke-opacity="0.24" stroke-width="0.187339"/>
<path d="M137.277 -120.45C158.83 -126.537 181.102 -128.809 203.297 -127.185C223.64 -125.786 243.648 -120.584 262.505 -111.791C280.659 -103.189 296.151 -91.58 308.529 -77.3004C320.982 -63.2007 330.087 -45.7883 334.997 -26.6817C339.764 -7.84753 340.097 12.0471 335.965 31.0342C331.99 49.8909 324.018 68.0417 312.365 84.9873C300.712 101.933 285.864 116.818 268.298 129.223C249.618 142.303 229.213 151.957 207.839 157.828C186.285 163.915 164.014 166.187 141.819 164.563C121.476 163.164 101.468 157.962 82.6107 149.169C64.4571 140.567 48.9651 128.958 36.5868 114.678C23.7892 99.8602 14.8717 82.8341 10.1088 64.0195C5.34715 45.1845 5.01371 25.2913 9.14143 6.30354C13.1257 -12.5533 21.088 -30.704 32.7412 -47.6496C44.3943 -64.5952 59.2515 -79.4405 76.8175 -91.8451C95.4966 -104.926 115.902 -114.581 137.277 -120.45V-120.45ZM136.888 -121.988C46.1763 -96.6455 -11.384 -13.1289 8.31212 64.5614C28.0083 142.252 117.516 184.667 208.228 159.325C298.939 133.983 356.499 50.4664 336.802 -27.2641C317.106 -104.995 227.599 -147.329 136.888 -121.988V-121.988Z" stroke="white" stroke-opacity="0.24" stroke-width="0.187339"/>
<path d="M152.623 -141.902C174.243 -145.309 196.242 -144.346 217.592 -139.056C237.535 -134.19 256.535 -125.246 273.652 -112.668C289.98 -100.742 304.011 -85.2122 314.895 -67.0161C325.738 -48.847 332.77 -28.1374 335.457 -6.46697C338.143 15.2034 336.413 37.2621 330.397 58.0262C324.358 78.8357 314.637 98.0295 301.822 114.446C288.425 131.746 272.323 146.114 254.314 156.837C215.445 179.984 170.546 186.908 127.496 176.393C107.555 171.527 88.5584 162.583 71.445 150.004C55.1166 138.079 41.0863 122.549 30.2014 104.353C19.3549 86.186 12.3176 65.4775 9.6264 43.8071C6.93517 22.1368 8.66113 0.0769411 14.6726 -20.6894C20.7282 -41.5041 30.4677 -60.6986 43.3012 -77.1101C56.6987 -94.4097 72.801 -108.778 90.8093 -119.501C110.071 -131.052 131.01 -138.637 152.65 -141.902L152.623 -141.902ZM152.427 -143.674C61.4985 -129.659 -3.25556 -45.5994 7.84818 44.0663C18.9519 133.732 101.751 195.036 192.715 181.01C283.679 166.984 348.397 82.9351 337.293 -6.73061C326.19 -96.3963 243.364 -157.7 152.4 -143.674L152.427 -143.674Z" stroke="white" stroke-opacity="0.24" stroke-width="0.187339"/>
<path d="M169.766 -163.4C206.967 -163.939 243.237 -149.942 272.432 -123.78C301.627 -97.6181 321.952 -60.8994 329.965 -19.844C337.977 21.2114 333.184 64.0794 316.398 101.498C299.611 138.917 271.863 168.586 237.854 185.479C198.792 204.474 154.606 205.229 114.932 187.581C75.2589 169.933 43.3182 135.314 26.0771 91.274C8.8361 47.2344 7.69375 -2.65171 22.8993 -47.5029C38.1048 -92.3541 68.4243 -128.531 107.244 -148.142C126.949 -157.927 148.213 -163.117 169.766 -163.4V-163.4ZM169.735 -165.417C137.49 -164.927 106.133 -153.651 79.6304 -133.015C53.1273 -112.38 32.6682 -83.3115 20.8403 -49.4864C9.01238 -15.6614 6.34686 21.4013 13.1808 57.0148C20.0148 92.6284 36.0413 125.193 59.2336 150.591C82.426 175.989 111.743 193.08 143.476 199.702C175.21 206.323 207.935 202.179 237.514 187.793C267.092 173.407 292.196 149.425 309.649 118.879C327.103 88.3339 336.124 52.5973 335.57 16.1885C335.202 -7.98602 330.621 -31.8597 322.088 -54.0694C313.555 -76.2791 301.237 -96.3899 285.838 -113.254C270.439 -130.117 252.26 -143.403 232.339 -152.354C212.418 -161.304 191.145 -165.743 169.735 -165.417V-165.417Z" stroke="white" stroke-opacity="0.24" stroke-width="0.187339"/>
</svg>
