<svg width="243" height="207" viewBox="0 0 243 207" fill="none" xmlns="http://www.w3.org/2000/svg">
<g opacity="0.6">
<path d="M96.955 138.996C102.524 127.754 116.611 121.677 135.513 121.399C154.337 121.121 177.529 126.626 200.583 138.047C223.636 149.467 242.068 164.582 253.252 179.725C264.483 194.932 268.184 209.82 262.615 221.062C257.045 232.305 242.959 238.382 224.056 238.661C205.232 238.938 182.041 233.432 158.987 222.012C135.934 210.591 117.502 195.477 106.317 180.334C95.0859 165.127 91.3856 150.239 96.955 138.996Z" stroke="url(#paint0_linear_130_366)" stroke-width="2.67723"/>
<path d="M136.385 261.607C125.142 256.037 119.066 241.951 118.787 223.048C118.51 204.225 124.015 181.033 135.435 157.979C146.856 134.925 161.971 116.494 177.114 105.309C192.321 94.0781 207.208 90.3775 218.451 95.9467C229.693 101.516 235.77 115.602 236.049 134.505C236.327 153.329 230.821 176.521 219.4 199.574C207.98 222.628 192.866 241.06 177.723 252.244C162.516 263.476 147.627 267.176 136.385 261.607Z" stroke="url(#paint1_linear_130_366)" stroke-width="2.67723"/>
<circle cx="179.72" cy="179.997" r="95.0416" transform="rotate(-63.6467 179.72 179.997)" stroke="url(#paint2_linear_130_366)" stroke-width="2.67723"/>
</g>
<defs>
<linearGradient id="paint0_linear_130_366" x1="95.7551" y1="138.402" x2="275.285" y2="141.662" gradientUnits="userSpaceOnUse">
<stop stop-color="white"/>
<stop offset="1" stop-color="white" stop-opacity="0"/>
</linearGradient>
<linearGradient id="paint1_linear_130_366" x1="135.791" y1="262.806" x2="139.051" y2="83.2768" gradientUnits="userSpaceOnUse">
<stop stop-color="white"/>
<stop offset="1" stop-color="white" stop-opacity="0"/>
</linearGradient>
<linearGradient id="paint2_linear_130_366" x1="111.45" y1="107.712" x2="239.957" y2="271.023" gradientUnits="userSpaceOnUse">
<stop stop-color="white"/>
<stop offset="1" stop-color="white" stop-opacity="0"/>
</linearGradient>
</defs>
</svg>
