<svg width="84" height="126" viewBox="0 0 84 126" fill="none" xmlns="http://www.w3.org/2000/svg">
<path d="M47.1311 100.424C44.8003 99.4982 42.4907 100.796 40.4407 104.162C37.5957 108.757 37.8274 110.183 41.2428 109.387C44.3103 108.682 49.1992 101.233 47.1311 100.424Z" fill="white"/>
<path d="M45.0027 93.1308C44.7085 91.9999 40.3577 91.8779 38.9294 92.9926C36.5268 94.8251 24.4471 110.693 23.4728 111.411C21.0911 113.145 25.7343 114.212 28.5641 112.594C31.1442 111.087 45.3196 94.3488 45.0027 93.1308Z" fill="white"/>
<path d="M20.9215 51.9785C24.1951 51.1733 24.7707 49.8161 22.285 48.6516C17.4554 46.3321 14.073 46.0046 11.9088 47.6823C9.3435 49.6036 16.5057 53.0345 20.9215 51.9785Z" fill="white"/>
<path d="M72.9652 43.3601C75.3254 42.7926 79.0057 38.9093 78.3939 37.6288C77.2817 35.3174 72.41 36.5849 70.4339 39.6997C68.2856 43.0451 69.1262 44.3125 72.9652 43.3601Z" fill="white"/>
<path d="M30.2479 48.2055C34.7142 47.8795 33.8666 45.8709 26.6571 39.7587C13.3699 28.4937 9.20229 25.8627 7.1459 27.4194C4.37447 29.4407 25.5849 48.49 30.2479 48.2055Z" fill="white"/>
<path d="M94.6972 24.4249C92.8035 25.8929 79.6656 40.5497 76.5109 44.6678C75.822 45.5901 79.1402 46.0272 81.3132 45.276C83.4863 44.5249 84.1996 43.8749 91.5888 35.6829C95.9466 30.8339 99.9922 26.391 100.543 25.8298C103.165 23.0577 98.0192 21.8423 94.6972 24.4249Z" fill="white"/>
<path d="M79.8038 63.0373C81.8358 61.2083 81.7017 60.8716 78.3694 58.9521C68.1646 53.1083 56.6035 36.5179 50.3961 18.9062C48.1445 12.5723 40.5028 8.01217 41.3013 24.291C42.2824 44.8415 37.7864 67.1884 31.9242 70.8962C27.9802 73.4085 29.2169 76.1983 33.7406 75.0214C40.4389 73.2787 46.1007 78.261 52.3317 91.5011C56.3819 100.107 62.8966 113.366 63.35 114.038C64.4551 115.608 71.1498 116.885 69.7055 104.907C67.6254 87.9866 72.0316 69.9357 79.8038 63.0373ZM71.7582 62.9942C65.9053 69.9506 61.3841 81.669 61.5149 89.6693C61.5326 91.5223 60.9862 91.3858 60.0838 89.345C55.5583 78.912 50.2505 73.3268 43.267 71.4748L40.5673 70.7375C45.0995 62.4528 47.3044 59.3249 49.261 37.0351C49.3392 36.0859 49.4166 36.2051 52.3518 41.0609C57.8688 50.3069 63.3785 56.4898 69.3549 60.1828C72.3601 62.0945 72.4376 62.2137 71.7582 62.9942Z" fill="white"/>
<path d="M77.8233 89.5138C76.7543 90.5814 77.2833 91.1868 82.2028 94.9226C90.8226 101.457 94.8926 102.999 96.4695 100.313C97.2096 99.0527 96.45 98.275 90.1924 93.6799C82.4418 87.9871 80.1563 87.2349 77.8233 89.5138Z" fill="white"/>
</svg>
