<svg width="220" height="168" viewBox="0 0 220 168" fill="none" xmlns="http://www.w3.org/2000/svg">
<path d="M100.868 54.7536C140.617 27.7885 152.299 20.3678 152.299 18.384C152.299 16.9881 147.009 17.943 143.041 20.0737C121.587 31.5355 75.7393 64.084 76.8418 67.17C77.7236 69.8146 81.6906 67.7579 100.868 54.7536Z" fill="white"/>
<path d="M219.159 4.27809C219.159 1.70654 213.061 -0.791566 209.314 0.23707C206.522 0.971762 194.399 9.42126 171.034 24.1893C148.478 38.3696 143.335 42.2636 144.657 44.3205C146.715 47.6272 157.882 39.3248 197.852 17.2829C219.82 5.08639 219.159 5.45361 219.159 4.27809Z" fill="white"/>
<path d="M120.703 56.6614C74.5617 82.8907 84.7747 78.997 48.5526 97.1449C16.2245 113.383 11.8896 114.411 0.207382 109.194C-12.8709 103.317 -14.6341 105.006 -9.27059 118.379C-6.91946 124.256 -6.33174 126.534 -6.62568 128.959C-7.28693 134.469 -10.0789 142.478 -12.724 146.078C-21.0999 157.686 -3.76027 152.763 -2.43777 152.176C4.39529 149.237 11.3017 152.176 21.294 162.242C27.9066 168.855 38.193 170.177 35.6949 164.079C30.3313 151.001 32.0212 137.555 49.5078 122.347C63.6883 110.076 85.0687 93.0305 104.024 80.0995C131.724 61.143 134.075 59.1595 131.797 56.514C130.254 54.6779 124.009 54.7512 120.703 56.6614ZM36.2827 120.436C19.5308 137.261 21.0737 148.576 20.6329 149.899C11.0814 144.976 12.5508 145.343 0.354271 144.682L2.26465 140.568C6.45264 131.53 3.21984 119.407 3.21984 119.334L8.73033 121.097C19.2369 124.403 27.9066 122.787 38.9276 115.513C41.2787 113.97 43.4096 112.648 43.63 112.648C43.9239 112.574 40.6175 116.101 36.2827 120.436Z" fill="white"/>
</svg>
